<svg width="111" height="111" viewBox="0 0 111 111" fill="none" xmlns="http://www.w3.org/2000/svg">
<circle cx="55.5" cy="55.5" r="55" stroke="url(#paint0_linear_222_373)" stroke-opacity="0.6"/>
<path d="M34.07 59.3115L55.5572 83.3851C55.8365 83.6985 56.3756 83.6985 56.6556 83.3851L78.1415 59.3115C78.2619 59.1766 78.3281 59.0026 78.3281 58.8216L78.3281 46.1301C78.3281 45.8249 78.1396 45.5513 77.8546 45.4422C77.5703 45.3344 77.2468 45.4126 77.0431 45.6395L63.0691 61.2958L63.0691 27.6101C63.0691 27.2034 62.7394 26.8743 62.3333 26.8743L49.8788 26.8743C49.4722 26.8743 49.143 27.2034 49.143 27.6101L49.143 61.2964L35.1684 45.6402C34.9653 45.4132 34.6425 45.335 34.3569 45.4428C34.0719 45.5519 33.8834 45.8249 33.8834 46.1307L33.8834 58.821C33.8834 59.002 33.9496 59.176 34.07 59.3115ZM35.355 48.0594L49.3297 63.7157C49.5333 63.9439 49.8561 64.0221 50.1411 63.913C50.4261 63.8039 50.6146 63.5309 50.6146 63.2251L50.6146 28.3452L61.5975 28.3452L61.5975 63.2251C61.5975 63.5303 61.786 63.8039 62.071 63.913C62.3573 64.0215 62.6795 63.9439 62.8825 63.7157L76.8565 48.0594L76.8565 58.5404L56.1064 81.7899L35.355 58.5404L35.355 48.0594Z" fill="#FB9A63" fill-opacity="0.6"/>
<path d="M55.9302 83.0521L55.9305 83.0524C56.0107 83.1424 56.2011 83.1431 56.2825 83.0522L55.9302 83.0521ZM55.9302 83.0521L34.4438 58.9795C34.4436 58.9793 34.4434 58.979 34.4432 58.9788C34.4043 58.9347 34.3834 58.879 34.3834 58.821L34.3834 46.1307C34.3834 46.033 34.4431 45.9457 34.5345 45.9102C34.6279 45.8754 34.7316 45.9018 34.7957 45.9735L48.77 61.6293L49.643 62.6074L49.643 61.2964L49.643 27.6101C49.643 27.4795 49.7483 27.3743 49.8788 27.3743L62.3333 27.3743C62.4635 27.3743 62.5691 27.4798 62.5691 27.6101L62.5691 61.2958L62.5691 62.6068L63.4421 61.6287L77.4153 45.9734C77.4155 45.9732 77.4157 45.973 77.4159 45.9728C77.4812 45.9005 77.5856 45.8753 77.6767 45.9095C77.768 45.9448 77.8281 46.0327 77.8281 46.1301L77.8281 58.8216C77.8281 58.8801 77.8069 58.9356 77.7685 58.9786L78.141 59.3111L77.7685 58.9786L56.2827 83.052L55.9302 83.0521ZM35.728 47.7265L34.855 46.7484L34.855 48.0594L34.855 58.5404L34.855 58.7311L34.982 58.8734L55.7334 82.1228L56.1064 82.5408L56.4794 82.1228L77.2295 58.8734L77.3565 58.7311L77.3565 58.5404L77.3565 48.0594L77.3565 46.7484L76.4835 47.7265L62.5095 63.3827L62.5089 63.3834C62.4454 63.4547 62.3434 63.4811 62.249 63.4458C62.1577 63.4105 62.0975 63.3226 62.0975 63.2251L62.0975 28.3452L62.0975 27.8452L61.5975 27.8452L50.6146 27.8452L50.1146 27.8452L50.1146 28.3452L50.1146 63.2251C50.1146 63.3232 50.0544 63.4108 49.9624 63.446C49.8713 63.4809 49.7681 63.456 49.7027 63.3828L49.7027 63.3827L35.728 47.7265Z" stroke="url(#paint1_linear_222_373)" stroke-opacity="0.6"/>
<defs>
<linearGradient id="paint0_linear_222_373" x1="55.5" y1="0" x2="55.5" y2="111" gradientUnits="userSpaceOnUse">
<stop stop-color="#1C0101"/>
<stop offset="1" stop-color="#08374E"/>
</linearGradient>
<linearGradient id="paint1_linear_222_373" x1="56.1058" y1="83.6201" x2="56.1058" y2="26.8743" gradientUnits="userSpaceOnUse">
<stop stop-color="#1C0101"/>
<stop offset="1" stop-color="#08374E"/>
</linearGradient>
</defs>
</svg>
