<svg width="44" height="44" viewBox="0 0 44 44" fill="none" xmlns="http://www.w3.org/2000/svg">
<rect width="44" height="44" rx="22" fill="url(#paint0_linear_222_456)"/>
<path d="M22.0002 11.8987L30.5676 19.5007V32.4244H13.4324V19.5007L22.0002 11.8987ZM21.9998 10.1445C21.8866 10.1445 21.7734 10.1846 21.6827 10.2648L12.1604 18.7138C12.0582 18.8046 12 18.9344 12 19.071V33.3788C12 33.6423 12.2139 33.8562 12.4775 33.8562H31.5225C31.7861 33.8562 32 33.6423 32 33.3788V19.071C32 18.9344 31.9418 18.8046 31.8396 18.7138L22.3173 10.2648C22.227 10.1846 22.1129 10.1445 21.9998 10.1445Z" fill="black"/>
<path d="M22.667 19.5322V20.6199C22.9792 20.6413 23.6367 20.7493 24.3037 21.3088L23.5823 22.4604C23.2595 22.1697 22.8608 21.9548 22.4092 21.9548C22.1074 21.9548 21.8701 22.0303 21.7307 22.1592C21.6123 22.2671 21.5149 22.4285 21.5149 22.6113C21.5149 22.7942 21.5903 22.9236 21.7202 23.031C21.8921 23.1819 22.1504 23.2573 22.4407 23.3862L23.0437 23.645C23.4099 23.8064 23.7756 23.9787 24.0564 24.2585C24.4116 24.6247 24.562 25.0659 24.562 25.5825C24.562 26.261 24.3137 26.8205 23.9695 27.1867C23.6572 27.5205 23.2051 27.7678 22.667 27.8542V29.0813H21.6982V27.8972C21.2681 27.8757 20.8584 27.7788 20.4063 27.542C20.0405 27.3476 19.7173 27.1113 19.4375 26.8096L20.2344 25.6255C20.3203 25.7119 20.5791 25.9702 20.9338 26.1855C21.2136 26.3579 21.5254 26.4763 21.9351 26.4763C22.1719 26.4763 22.4407 26.4333 22.6565 26.25C22.7969 26.1316 22.9153 25.9592 22.9153 25.7009C22.9153 25.4426 22.7969 25.2597 22.592 25.1199C22.4201 25.0014 22.2368 24.9475 21.8496 24.7966L21.4729 24.6457C21.0962 24.4949 20.7085 24.312 20.3857 23.9892C20.052 23.6445 19.9011 23.2893 19.9011 22.8052C19.9011 22.1702 20.1379 21.5886 20.5146 21.2119C20.8059 20.9211 21.2361 20.6953 21.6987 20.6199V19.5322H22.667Z" fill="black"/>
<defs>
<linearGradient id="paint0_linear_222_456" x1="0" y1="0" x2="47.2262" y2="41.8484" gradientUnits="userSpaceOnUse">
<stop stop-color="#D3DAE2"/>
<stop offset="1" stop-color="#F3D4D7"/>
</linearGradient>
</defs>
</svg>
