<svg width="53" height="64" viewBox="0 0 53 64" fill="none" xmlns="http://www.w3.org/2000/svg">
<path d="M44.4168 31.7024C45.6716 30.4669 46.8087 29.2174 47.8151 27.9818C51.8408 23.0117 53.2263 18.7014 51.6971 15.8512C49.6058 11.9481 42.9922 12.1587 35.2675 14.7421C33.4899 6.26186 30.353 0 26.1574 0C21.9618 0 18.8118 6.24783 17.0473 14.728C9.32268 12.1446 2.70904 11.934 0.617764 15.8372C-1.47351 19.7403 1.99016 25.7916 7.93721 31.6744C1.99016 37.5712 -1.48658 43.6084 0.617764 47.5256C1.74182 49.6176 4.15986 50.5302 7.34904 50.5302C10.1069 50.5302 13.466 49.8141 17.0473 48.6207C18.8249 57.1149 21.9618 63.3768 26.1705 63.3768C30.3661 63.3768 33.5161 57.1149 35.2937 48.6207C38.875 49.8141 42.2341 50.5302 44.9919 50.5302C48.1811 50.5302 50.5992 49.6176 51.7232 47.5256C53.2525 44.6755 51.8801 40.3792 47.8413 35.395C46.8087 34.1875 45.6585 32.938 44.4168 31.7024ZM2.2385 46.5287C0.892243 44.0156 3.53247 38.7927 9.33575 33.0643C11.2571 34.8334 13.3745 36.5884 15.6096 38.2311C15.8187 41.1514 16.1585 43.9875 16.6421 46.6551C9.11355 49.1823 3.58476 49.0279 2.2385 46.5287ZM15.4658 27.7712C15.4135 29.077 15.3743 30.3967 15.3743 31.7024C15.3743 31.8709 15.3743 32.0254 15.3743 32.1938C15.3743 32.3623 15.3743 32.5168 15.3743 32.6852C15.3743 33.0082 15.3874 33.3451 15.4004 33.6681C15.4135 33.991 15.4135 34.3279 15.4266 34.6509C15.4397 34.9738 15.4527 35.2967 15.4658 35.6337C15.3612 35.5494 15.2567 35.4652 15.1521 35.3809C14.3025 34.7211 13.4791 34.0612 12.7079 33.4153C12.4204 33.1626 12.1328 32.9239 11.8453 32.6852C11.4662 32.3623 11.1133 32.0394 10.7604 31.7024C10.8519 31.6182 10.9434 31.534 11.0218 31.4638C11.2048 31.2953 11.3878 31.1408 11.5708 30.9724C11.6623 30.8881 11.7538 30.8039 11.8453 30.7196C12.1198 30.4669 12.4073 30.2282 12.7079 29.9896C13.2961 29.4982 13.8973 29.0068 14.5247 28.5154C14.7338 28.3469 14.943 28.1924 15.1521 28.024C15.2567 27.9397 15.3612 27.8555 15.4658 27.7712ZM15.6096 25.1738C13.3615 26.8305 11.244 28.5715 9.33575 30.3406C8.81293 29.8211 8.31626 29.3016 7.83265 28.7962C7.70195 28.6558 7.55817 28.5013 7.42747 28.3609C7.23141 28.1503 7.03535 27.9257 6.85237 27.7151C6.72166 27.5747 6.60403 27.4343 6.48639 27.2939C6.36876 27.1535 6.25113 27.0131 6.13349 26.8727C6.01586 26.7323 5.89822 26.5919 5.79366 26.4515C5.74138 26.3813 5.6891 26.3111 5.62374 26.2409C5.34927 25.8899 5.10093 25.5529 4.85259 25.2159C4.65653 24.9492 4.47355 24.6824 4.29056 24.4157C4.19907 24.2893 4.12064 24.1489 4.02915 24.0225C3.78081 23.6294 3.54554 23.2503 3.33642 22.8853C3.27106 22.7589 3.20571 22.6466 3.14036 22.5202C2.9443 22.1552 2.77439 21.8042 2.63061 21.4532C2.38227 20.8776 2.18622 20.33 2.06858 19.8246C1.89867 19.1506 1.84639 18.5469 1.89867 17.9994C1.89867 17.9853 1.89867 17.9713 1.89867 17.9572C1.91174 17.873 1.92481 17.7887 1.93788 17.7185C1.93788 17.6905 1.95095 17.6764 1.95095 17.6483C1.96402 17.6062 1.96402 17.5641 1.97709 17.522C1.97709 17.5079 1.99016 17.4939 1.99016 17.4658C1.99016 17.4377 2.00323 17.4237 2.00323 17.3956C2.0163 17.3675 2.0163 17.3395 2.02937 17.3114C2.04244 17.2833 2.04244 17.2552 2.05551 17.2271C2.09472 17.1148 2.14701 17.0025 2.21236 16.8902C2.31692 16.6936 2.4607 16.4971 2.61754 16.3286C4.46047 14.377 9.70172 14.4332 16.616 16.7638C16.1716 19.4174 15.8187 22.2675 15.6096 25.1738ZM34.6401 23.7417C33.6206 23.0397 32.5881 22.3518 31.5163 21.6919C31.3856 21.6076 31.2549 21.5234 31.1242 21.4532C30.8628 21.2847 30.5883 21.1303 30.3269 20.9758C30.0524 20.8214 29.791 20.667 29.5165 20.5125C29.1113 20.2738 28.7062 20.0492 28.301 19.8246C29.1375 19.4034 29.974 19.0243 30.7844 18.6733C31.2418 18.4627 31.7124 18.2802 32.1568 18.0836C32.4966 17.9432 32.8364 17.8028 33.1632 17.6764C33.3854 17.5922 33.6076 17.5079 33.8298 17.4237C34.1696 19.3612 34.4441 21.4953 34.6401 23.7417ZM26.1313 2.06389C27.0985 2.06389 28.0918 2.72377 29.046 3.94526C29.1767 4.0997 29.2943 4.26818 29.412 4.4507C29.4512 4.50686 29.4904 4.56302 29.5296 4.63322C30.1047 5.5037 30.6537 6.57075 31.1765 7.82031C31.281 8.08707 31.3987 8.36787 31.5032 8.64867C31.6862 9.12604 31.8561 9.61744 32.0261 10.1369C32.1306 10.4458 32.2352 10.7687 32.3267 11.0916C32.4312 11.4146 32.5227 11.7515 32.6142 12.1025C32.6404 12.2148 32.6796 12.3272 32.7057 12.4535C32.7711 12.6782 32.8233 12.9169 32.8887 13.1555C33.0717 13.8716 33.2416 14.6157 33.3984 15.3879C31.0066 16.2865 28.5493 17.3816 26.0921 18.6452C23.6348 17.3816 21.1776 16.2865 18.7857 15.3879C20.5502 7.13235 23.4388 2.06389 26.1313 2.06389ZM17.9753 20.4564C18.0145 20.1896 18.0407 19.9228 18.0799 19.6701C18.1322 19.277 18.1844 18.8979 18.2498 18.5188C18.2759 18.3925 18.289 18.2661 18.3151 18.1398C18.3544 17.9151 18.3936 17.6764 18.4328 17.4518C18.4328 17.4377 18.4328 17.4097 18.4459 17.3956C19.5438 17.8168 20.6809 18.2802 21.8442 18.8137C22.1971 18.9681 22.55 19.1366 22.9029 19.3051C23.2558 19.4736 23.6218 19.642 23.9747 19.8246C23.4388 20.1194 22.8898 20.4283 22.3539 20.7372C22.1317 20.8635 21.9095 20.9899 21.7004 21.1303C21.3867 21.3128 21.073 21.5094 20.7593 21.6919C19.7006 22.3518 18.6681 23.0397 17.6355 23.7558C17.727 22.6185 17.8446 21.5234 17.9753 20.4564ZM18.4328 45.9531C18.3936 45.7285 18.3544 45.5038 18.3151 45.2651C18.289 45.1388 18.2759 45.0124 18.2498 44.8861C18.1844 44.507 18.1322 44.1139 18.0799 43.7348C18.0407 43.468 18.0145 43.2153 17.9753 42.9485C17.8446 41.8815 17.727 40.7864 17.6224 39.6632C18.655 40.3652 19.6875 41.0672 20.7463 41.713C21.805 42.3729 22.8767 42.9906 23.9485 43.5944C23.8309 43.6505 23.7132 43.7067 23.5956 43.7628C23.3603 43.8752 23.1251 43.9875 22.8767 44.0998C22.6415 44.2121 22.4062 44.3245 22.1709 44.4227C21.7004 44.6333 21.2429 44.8439 20.7855 45.0405C20.4456 45.1949 20.1058 45.3353 19.766 45.4757C19.3085 45.6583 18.8772 45.8408 18.4328 45.9952C18.4328 45.9952 18.4328 45.9812 18.4328 45.9531ZM28.1703 60.4284C28.0918 60.4986 28.0004 60.5688 27.9219 60.639C27.8435 60.7092 27.752 60.7654 27.6605 60.8215C27.1508 61.1585 26.641 61.341 26.1313 61.341C23.4388 61.341 20.5371 56.2725 18.8249 48.017C20.6155 47.3431 22.4585 46.5428 24.2883 45.6583C24.589 45.5038 24.9027 45.3634 25.2033 45.209C25.3601 45.1388 25.517 45.0545 25.6607 44.9843C25.8176 44.9001 25.9614 44.8299 26.1182 44.7457C28.5755 46.0093 31.0327 47.1325 33.4246 48.017C32.1568 54.2087 30.2093 58.6172 28.1703 60.4284ZM33.8298 46.0233C32.2875 45.4477 30.6798 44.7457 29.0198 43.9454C28.7846 43.8331 28.5493 43.7207 28.301 43.5944C29.3858 42.9906 30.4576 42.3588 31.5032 41.713C31.7646 41.5445 32.0391 41.376 32.3005 41.2076C32.6926 40.9548 33.0848 40.7021 33.4769 40.4494C33.869 40.1967 34.248 39.9299 34.6271 39.6632C34.4441 41.9236 34.1696 44.0577 33.8298 46.0233ZM30.5622 39.944C29.0591 40.8706 27.5821 41.713 26.1313 42.4852C24.6805 41.713 23.2035 40.8706 21.7004 39.944C20.1973 39.0173 18.7857 38.0626 17.4394 37.0938C17.3349 35.3529 17.2826 33.5698 17.2826 31.7024C17.2826 29.8351 17.3479 28.052 17.4394 26.3111C18.7857 25.3563 20.1973 24.4016 21.7004 23.4609C23.2035 22.5202 24.6805 21.7059 26.1313 20.9197C27.5821 21.6919 29.046 22.5343 30.5491 23.4609C31.098 23.7979 31.647 24.1489 32.1829 24.4999C32.5358 24.7386 32.9018 24.9773 33.2547 25.2159C33.7775 25.5669 34.3003 25.932 34.8231 26.297C34.8885 27.3781 34.9277 28.4873 34.9669 29.6245C34.98 30.2984 34.993 31.0004 34.993 31.6884C34.993 33.5557 34.9277 35.3529 34.8362 37.0798C33.4507 38.0766 32.0391 39.0314 30.5622 39.944ZM36.8883 30.7196C36.8883 30.3967 36.8752 30.0598 36.8621 29.7368C36.849 29.4139 36.849 29.077 36.836 28.754C36.8229 28.4311 36.8098 28.0942 36.7968 27.7712C38.4959 29.0629 40.0905 30.3827 41.5413 31.7165C40.0905 33.0503 38.4959 34.3701 36.7968 35.6617C36.849 34.356 36.8883 33.0363 36.8883 31.7165C36.9013 31.3795 36.8883 31.0426 36.8883 30.7196ZM35.6335 16.7638C39.2802 15.5423 42.4693 14.9246 44.9266 14.9246C45.6585 14.9246 46.3382 14.9807 46.9394 15.079C47.2793 15.1352 47.5799 15.2054 47.8674 15.3037C48.2203 15.416 48.521 15.5423 48.8085 15.6968C48.8608 15.7249 48.9 15.7529 48.9392 15.781C49.0307 15.8372 49.1091 15.8933 49.1875 15.9495C49.2268 15.9776 49.266 16.0057 49.3052 16.0337C49.3836 16.0899 49.449 16.1601 49.5274 16.2303C49.6712 16.3567 49.7888 16.5111 49.8933 16.6515C49.9456 16.7217 49.9979 16.8059 50.0371 16.8902C51.1089 18.8839 49.7757 22.45 46.3643 26.648C46.2467 26.8025 46.116 26.9569 45.9853 27.1113C45.7892 27.336 45.5932 27.5747 45.3971 27.7993C45.2011 28.024 44.9919 28.2626 44.7697 28.4873C44.7044 28.5575 44.626 28.6417 44.5606 28.726C44.0639 29.2595 43.528 29.807 42.9791 30.3406C41.0708 28.5715 38.9534 26.8305 36.653 25.1598C36.4439 22.2535 36.104 19.4174 35.6335 16.7638ZM50.0371 46.5287C49.9326 46.7253 49.7888 46.9219 49.6319 47.0903C48.4295 48.368 45.7892 48.7892 42.1818 48.2837C42.0772 48.2697 41.9727 48.2557 41.8681 48.2416C41.6067 48.1995 41.3322 48.1574 41.0708 48.1012C41.0316 48.1012 41.0054 48.0872 40.9662 48.0872C40.8094 48.0591 40.6525 48.031 40.4826 47.9889C40.4434 47.9889 40.4042 47.9749 40.365 47.9608C40.182 47.9327 39.999 47.8906 39.8291 47.8485C39.2279 47.7081 38.6005 47.5537 37.947 47.3711C37.8424 47.3431 37.7378 47.315 37.6202 47.2729C37.398 47.2167 37.1889 47.1465 36.9667 47.0763C36.5223 46.9359 36.0779 46.7955 35.6204 46.6411C35.8295 45.4757 36.0125 44.2823 36.1694 43.0608C36.2347 42.5414 36.3001 42.0078 36.3524 41.4743C36.47 40.4073 36.5615 39.3262 36.6399 38.2451C38.3652 36.9815 39.986 35.6898 41.5021 34.3841C42.0119 33.9489 42.4955 33.5136 42.966 33.0643C43.2797 33.3732 43.5803 33.6821 43.8809 33.991C43.9594 34.0612 44.0247 34.1454 44.1031 34.2156C44.1816 34.2858 44.2469 34.3701 44.3253 34.4543C45.0573 35.2265 45.7369 35.9987 46.3513 36.7569C49.7757 40.9689 51.1089 44.521 50.0371 46.5287Z" fill="url(#paint0_linear_370_176)"/>
<path d="M31.2408 27.7157C31.0578 27.3787 30.8487 27.0838 30.6003 26.8452C30.5742 26.8171 30.548 26.789 30.5219 26.775C30.4696 26.7328 30.4173 26.6767 30.365 26.6346C29.9729 26.2976 29.5155 26.0589 29.0319 25.9466C28.9142 25.9185 28.7835 25.9045 28.6659 25.8904C27.751 25.8062 26.8099 26.1853 26.1172 26.9575C25.7381 26.5644 25.3068 26.2836 24.8624 26.1151C23.856 25.722 22.745 25.8904 21.8823 26.6486C21.83 26.6907 21.7778 26.7328 21.7386 26.789C21.6863 26.8311 21.6471 26.8873 21.6078 26.9294C21.1112 27.4629 20.7713 28.1369 20.6014 28.9091C20.5491 29.1197 20.523 29.3303 20.5099 29.5549C20.4576 30.2288 20.5361 30.9027 20.7321 31.5065C20.7975 31.689 20.8628 31.8575 20.9413 32.0259C20.9674 32.0821 20.9935 32.1383 21.0327 32.1944C21.1242 32.3629 21.2157 32.5174 21.3203 32.6578C21.3595 32.7139 21.3987 32.756 21.4379 32.8122L25.4244 37.2067C25.5159 37.305 25.6335 37.3752 25.7643 37.4314C25.895 37.4875 26.0257 37.5156 26.1564 37.5156C26.4047 37.5156 26.7053 37.4033 26.8883 37.2208L30.2605 33.5984C30.2736 33.5844 30.2997 33.5563 30.3128 33.5423L30.7702 32.9666C31.6198 31.8856 31.9466 30.4113 31.7113 29.0775C31.6198 28.5721 31.463 28.1228 31.2408 27.7157ZM29.5939 28.7546C29.8553 29.232 29.9207 29.8778 29.803 30.4675C29.9207 29.8778 29.8553 29.246 29.5939 28.7546C29.5808 28.7265 29.5547 28.6985 29.5416 28.6704C29.5678 28.6985 29.5808 28.7265 29.5939 28.7546ZM29.3063 31.6047C29.424 31.4643 29.5155 31.2959 29.5939 31.1274C29.5155 31.2959 29.4109 31.4643 29.3063 31.6047ZM24.9539 28.5861C24.9147 28.544 24.8755 28.4879 24.8363 28.4457C24.8755 28.5019 24.9147 28.544 24.9539 28.5861ZM24.3526 28.0947C24.3004 28.0667 24.2481 28.0526 24.1958 28.0245C24.2481 28.0386 24.3004 28.0667 24.3526 28.0947Z" fill="url(#paint1_linear_370_176)"/>
<defs>
<linearGradient id="paint0_linear_370_176" x1="26.166" y1="0" x2="26.166" y2="63.3768" gradientUnits="userSpaceOnUse">
<stop stop-color="#B43131"/>
<stop offset="1" stop-color="#144056"/>
</linearGradient>
<linearGradient id="paint1_linear_370_176" x1="26.1398" y1="25.8789" x2="26.1398" y2="37.5156" gradientUnits="userSpaceOnUse">
<stop stop-color="#B43131"/>
<stop offset="1" stop-color="#144056"/>
</linearGradient>
</defs>
</svg>
