<svg width="28" height="28" viewBox="0 0 28 28" fill="none" xmlns="http://www.w3.org/2000/svg">
<path d="M28 14C28 21.732 21.732 28 14 28C6.26801 28 0 21.732 0 14C0 6.26801 6.26801 0 14 0C21.732 0 28 6.26801 28 14Z" fill="url(#paint0_linear_537_134)"/>
<path d="M12.2058 21.3514H15.2697V15.2161H18.0302L18.3335 12.1675H15.2697V10.628C15.2697 10.4248 15.3504 10.23 15.494 10.0863C15.6377 9.9427 15.8325 9.862 16.0356 9.862H18.3335V6.79816H16.0356C15.0199 6.79816 14.0458 7.20166 13.3276 7.91988C12.6093 8.63811 12.2058 9.61223 12.2058 10.628V12.1675H10.6739L10.3706 15.2161H12.2058V21.3514Z" fill="#353232"/>
<defs>
<linearGradient id="paint0_linear_537_134" x1="0" y1="14" x2="28" y2="14" gradientUnits="userSpaceOnUse">
<stop stop-color="#CAD2DC"/>
<stop offset="1" stop-color="#ECD0D1"/>
</linearGradient>
</defs>
</svg>
