<svg width="31" height="32" viewBox="0 0 31 32" fill="none" xmlns="http://www.w3.org/2000/svg">
<circle cx="15.7601" cy="16.0912" r="15.2387" fill="url(#paint0_linear_881_106)"/>
<path d="M15.6587 13.5843C15.0506 13.5843 14.4674 13.8259 14.0374 14.2559C13.6074 14.6859 13.3659 15.2691 13.3659 15.8772C13.3659 16.4853 13.6074 17.0685 14.0374 17.4985C14.4674 17.9285 15.0506 18.17 15.6587 18.17C16.2668 18.17 16.85 17.9285 17.28 17.4985C17.71 17.0685 17.9516 16.4853 17.9516 15.8772C17.9516 15.2691 17.71 14.6859 17.28 14.2559C16.85 13.8259 16.2668 13.5843 15.6587 13.5843Z" fill="#353232"/>
<path fill-rule="evenodd" clip-rule="evenodd" d="M11.969 9.58558C14.4213 9.31392 16.8961 9.31392 19.3485 9.58558C20.6882 9.73515 21.7683 10.7899 21.9256 12.1345C22.2162 14.6212 22.2162 17.1332 21.9256 19.6198C21.7683 20.9645 20.6882 22.0192 19.3492 22.1695C16.8966 22.4412 14.4216 22.4412 11.969 22.1695C10.6293 22.0192 9.54916 20.9645 9.39183 19.6205C9.10116 17.1337 9.10116 14.6214 9.39183 12.1345C9.54916 10.7899 10.6293 9.73515 11.969 9.58558ZM19.1862 11.6442C18.9991 11.6442 18.8196 11.7185 18.6873 11.8508C18.555 11.9832 18.4807 12.1626 18.4807 12.3497C18.4807 12.5368 18.555 12.7163 18.6873 12.8486C18.8196 12.9809 18.9991 13.0552 19.1862 13.0552C19.3733 13.0552 19.5528 12.9809 19.6851 12.8486C19.8174 12.7163 19.8917 12.5368 19.8917 12.3497C19.8917 12.1626 19.8174 11.9832 19.6851 11.8508C19.5528 11.7185 19.3733 11.6442 19.1862 11.6442ZM12.3076 15.8772C12.3076 14.9884 12.6607 14.136 13.2892 13.5076C13.9176 12.8791 14.77 12.5261 15.6587 12.5261C16.5475 12.5261 17.3999 12.8791 18.0283 13.5076C18.6568 14.136 19.0098 14.9884 19.0098 15.8772C19.0098 16.7659 18.6568 17.6183 18.0283 18.2468C17.3999 18.8752 16.5475 19.2283 15.6587 19.2283C14.77 19.2283 13.9176 18.8752 13.2892 18.2468C12.6607 17.6183 12.3076 16.7659 12.3076 15.8772Z" fill="#353232"/>
<defs>
<linearGradient id="paint0_linear_881_106" x1="0.521484" y1="16.0912" x2="30.9988" y2="16.0912" gradientUnits="userSpaceOnUse">
<stop stop-color="#FDC1A0" stop-opacity="0.86"/>
<stop offset="1" stop-color="#F8D3BE" stop-opacity="0.77"/>
</linearGradient>
</defs>
</svg>
