<svg width="29" height="28" viewBox="0 0 29 28" fill="none" xmlns="http://www.w3.org/2000/svg">
<circle cx="14.3672" cy="14" r="14" fill="url(#paint0_linear_439_401)"/>
<path d="M14.2742 11.6968C13.7155 11.6968 13.1797 11.9188 12.7847 12.3138C12.3896 12.7088 12.1677 13.2446 12.1677 13.8033C12.1677 14.362 12.3896 14.8978 12.7847 15.2928C13.1797 15.6879 13.7155 15.9098 14.2742 15.9098C14.8329 15.9098 15.3687 15.6879 15.7637 15.2928C16.1587 14.8978 16.3807 14.362 16.3807 13.8033C16.3807 13.2446 16.1587 12.7088 15.7637 12.3138C15.3687 11.9188 14.8329 11.6968 14.2742 11.6968Z" fill="#353232"/>
<path fill-rule="evenodd" clip-rule="evenodd" d="M10.8844 8.02312C13.1374 7.77354 15.411 7.77354 17.664 8.02312C18.8948 8.16053 19.8872 9.12951 20.0317 10.3649C20.2987 12.6494 20.2987 14.9572 20.0317 17.2417C19.8872 18.4771 18.8948 19.4461 17.6647 19.5841C15.4115 19.8338 13.1376 19.8338 10.8844 19.5841C9.65354 19.4461 8.66123 18.4771 8.51669 17.2424C8.24964 14.9577 8.24964 12.6496 8.51669 10.3649C8.66123 9.12951 9.65354 8.16053 10.8844 8.02312ZM17.5149 9.91442C17.343 9.91442 17.1782 9.98271 17.0566 10.1043C16.9351 10.2258 16.8668 10.3907 16.8668 10.5626C16.8668 10.7345 16.9351 10.8993 17.0566 11.0209C17.1782 11.1424 17.343 11.2107 17.5149 11.2107C17.6868 11.2107 17.8517 11.1424 17.9732 11.0209C18.0948 10.8993 18.1631 10.7345 18.1631 10.5626C18.1631 10.3907 18.0948 10.2258 17.9732 10.1043C17.8517 9.98271 17.6868 9.91442 17.5149 9.91442ZM11.1955 13.8033C11.1955 12.9868 11.5199 12.2037 12.0972 11.6263C12.6746 11.049 13.4577 10.7246 14.2742 10.7246C15.0907 10.7246 15.8738 11.049 16.4512 11.6263C17.0285 12.2037 17.3529 12.9868 17.3529 13.8033C17.3529 14.6198 17.0285 15.4029 16.4512 15.9803C15.8738 16.5577 15.0907 16.882 14.2742 16.882C13.4577 16.882 12.6746 16.5577 12.0972 15.9803C11.5199 15.4029 11.1955 14.6198 11.1955 13.8033Z" fill="#353232"/>
<defs>
<linearGradient id="paint0_linear_439_401" x1="0.367188" y1="14" x2="28.3672" y2="14" gradientUnits="userSpaceOnUse">
<stop stop-color="#CAD2DC"/>
<stop offset="1" stop-color="#ECD0D1"/>
</linearGradient>
</defs>
</svg>
