<svg width="13" height="13" viewBox="0 0 13 13" fill="none" xmlns="http://www.w3.org/2000/svg">
<path d="M6.27419 4.69683C5.71552 4.69683 5.17973 4.91876 4.78469 5.3138C4.38964 5.70885 4.16771 6.24464 4.16771 6.80331C4.16771 7.36198 4.38964 7.89778 4.78469 8.29282C5.17973 8.68786 5.71552 8.90979 6.27419 8.90979C6.83287 8.90979 7.36866 8.68786 7.7637 8.29282C8.15874 7.89778 8.38067 7.36198 8.38067 6.80331C8.38067 6.24464 8.15874 5.70885 7.7637 5.3138C7.36866 4.91876 6.83287 4.69683 6.27419 4.69683Z" fill="#353232"/>
<path fill-rule="evenodd" clip-rule="evenodd" d="M2.88438 1.02312C5.13736 0.773542 7.41102 0.773542 9.66401 1.02312C10.8948 1.16053 11.8872 2.12951 12.0317 3.36488C12.2987 5.64939 12.2987 7.95723 12.0317 10.2417C11.8872 11.4771 10.8948 12.4461 9.66466 12.5841C7.41146 12.8338 5.13758 12.8338 2.88438 12.5841C1.65354 12.4461 0.66123 11.4771 0.516693 10.2424C0.249644 7.95766 0.249644 5.64961 0.516693 3.36488C0.66123 2.12951 1.65354 1.16053 2.88438 1.02312ZM9.51493 2.91442C9.34303 2.91442 9.17817 2.98271 9.05662 3.10426C8.93507 3.22581 8.86679 3.39067 8.86679 3.56257C8.86679 3.73447 8.93507 3.89933 9.05662 4.02088C9.17817 4.14243 9.34303 4.21072 9.51493 4.21072C9.68683 4.21072 9.85169 4.14243 9.97324 4.02088C10.0948 3.89933 10.1631 3.73447 10.1631 3.56257C10.1631 3.39067 10.0948 3.22581 9.97324 3.10426C9.85169 2.98271 9.68683 2.91442 9.51493 2.91442ZM3.19549 6.80331C3.19549 5.98679 3.51985 5.20371 4.09722 4.62634C4.67459 4.04897 5.45767 3.72461 6.27419 3.72461C7.09072 3.72461 7.8738 4.04897 8.45116 4.62634C9.02853 5.20371 9.3529 5.98679 9.3529 6.80331C9.3529 7.61983 9.02853 8.40291 8.45116 8.98028C7.8738 9.55765 7.09072 9.88201 6.27419 9.88201C5.45767 9.88201 4.67459 9.55765 4.09722 8.98028C3.51985 8.40291 3.19549 7.61983 3.19549 6.80331Z" fill="#353232"/>
</svg>
