<svg width="44" height="44" viewBox="0 0 44 44" fill="none" xmlns="http://www.w3.org/2000/svg">
<rect width="44" height="44" rx="22" fill="url(#paint0_linear_222_482)"/>
<path d="M21.9987 31.2898C22.412 31.2898 22.8019 31.0964 23.043 30.7724C25.1341 27.96 30 21.0562 30 17.6867C30 13.4478 26.4114 10 22 10C17.5886 10 14 13.4481 14 17.6867C14 21.0559 18.8658 27.9599 20.9558 30.7712C21.1969 31.0952 21.5868 31.2887 22.0001 31.2887L21.9987 31.2898ZM21.9987 11.2003C25.7219 11.2003 28.7506 14.1104 28.7506 17.6878C28.7506 20.1571 25.2768 25.7055 21.9705 30.0748C18.7203 25.7055 15.2464 20.1562 15.2464 17.6878C15.2464 14.1104 18.2755 11.2003 21.9987 11.2003Z" fill="black"/>
<path d="M26.5941 17.6901C26.5941 15.7856 25.3308 14.1027 23.4506 13.5031C22.6661 13.2691 22.2833 14.3794 23.0572 14.6415C26.62 15.8059 25.7664 20.8704 21.9988 20.8995C18.2276 20.8703 17.3764 15.7935 20.9497 14.6424C21.7248 14.3859 21.3478 13.2699 20.5622 13.5017C15.6473 15.1115 16.8051 22.0322 21.9988 22.0996C24.5324 22.0996 26.5941 20.1222 26.5941 17.6901Z" fill="black"/>
<path d="M26.8845 28.5675C26.1996 28.1344 25.5159 29.1288 26.1914 29.5653C28.5845 31.1504 25.469 32.7905 21.9976 32.7986C18.5262 32.7918 15.4117 31.1505 17.8039 29.5653C18.4829 29.1277 17.7898 28.1332 17.1107 28.5675C13.4673 31.2055 17.4245 34.0707 21.9966 33.9987C26.5686 34.0707 30.5259 31.2054 26.8824 28.5675H26.8845Z" fill="black"/>
<defs>
<linearGradient id="paint0_linear_222_482" x1="0" y1="0" x2="47.2262" y2="41.8484" gradientUnits="userSpaceOnUse">
<stop stop-color="#D3DFE2"/>
<stop offset="1" stop-color="#FBE2BF"/>
</linearGradient>
</defs>
</svg>
