<svg width="279" height="114" viewBox="0 0 279 114" fill="none" xmlns="http://www.w3.org/2000/svg">
<path d="M58.824 71.6069C54.6 71.6069 51.156 68.1629 51.156 63.9269V56.2602H58.824C60.8343 56.2977 62.7496 57.1226 64.1581 58.5575C65.5665 59.9925 66.3556 61.9229 66.3556 63.9335C66.3556 65.9442 65.5665 67.8746 64.1581 69.3095C62.7496 70.7445 60.8343 71.5694 58.824 71.6069ZM25.956 63.9269C25.956 68.1629 22.512 71.6069 18.288 71.6069C16.2517 71.6051 14.2993 70.7954 12.8594 69.3555C11.4195 67.9156 10.6098 65.9632 10.608 63.9269C10.608 59.7029 14.052 56.2602 18.288 56.2602H25.956V63.9269ZM58.824 47.3069H51.156V29.7869C48.1786 29.4412 45.1879 29.221 42.192 29.1269V47.3069H34.908V29.1389C31.9164 29.225 28.9297 29.4372 25.956 29.7749V47.3082H18.288C9.12 47.3082 1.656 54.7589 1.656 63.9269C1.656 73.0949 9.12 80.5589 18.288 80.5589C27.456 80.5589 34.908 73.0949 34.908 63.9269V56.2602H42.192V63.9269C42.192 73.0949 49.656 80.5589 58.824 80.5589C67.992 80.5589 75.456 73.0949 75.456 63.9269C75.456 54.7589 67.992 47.3069 58.824 47.3069ZM77.004 20.6189L74.244 29.1269L73.812 28.9949C66.3586 26.5709 58.788 24.9149 51.156 24.0629C48.1786 23.7172 45.1879 23.497 42.192 23.4029C39.7647 23.3173 37.335 23.3218 34.908 23.4162C31.9164 23.5019 28.9297 23.7136 25.956 24.0509C18.0857 24.941 10.3285 26.642 2.808 29.1269L0 20.6202C25.044 12.3509 51.516 12.3029 76.584 20.4749L77.004 20.6189ZM38.52 99.3162C25.712 99.3162 12.904 97.2855 0.445333 93.2229L0.0186666 93.0829L2.79733 84.5682L3.22267 84.7069C26.4573 92.2855 51.0093 92.2402 74.2186 84.5735L77.0293 93.0775C64.4373 97.2375 51.4786 99.3162 38.52 99.3162ZM14.5387 10.7936L12.8347 2.6869C29.0335 -0.735975 45.7528 -0.890093 62.012 2.23357L60.456 10.3696C45.2746 7.45262 29.6634 7.5959 14.5387 10.7936ZM38.5667 113.698C30.6914 113.695 22.8341 112.947 15.1 111.463L16.656 103.327C31.8372 106.245 47.4483 106.101 62.5733 102.904L64.2773 111.011C55.8231 112.794 47.2067 113.694 38.5667 113.698Z" fill="#FF6700"/>
<path d="M272.682 79.6201V73.9058H273.215L275.303 78.2138H275.466L277.538 73.9058H278.071V79.6201H277.627V74.4536L277.731 74.4684L275.732 78.5987H275.036L273.023 74.4684L273.097 74.4536V79.6201H272.682ZM269.603 79.6201V74.0243H270.047V79.6201H269.603ZM267.768 74.3203V73.9058H271.883V74.3203H267.768Z" fill="white"/>
<path d="M100.029 39.8223L107.373 17.577H115.449L123.067 39.8223H117.886L111.731 21.0205L113.315 21.6604H109.384L111.03 21.0205L105.027 39.8223H100.029ZM105.606 34.3067L107.129 30.1624H115.845L117.399 34.3067H105.606Z" fill="white"/>
<path d="M139.584 39.8223V17.577H144.582V39.8223H139.584ZM125.201 39.8223V17.577H130.199V39.8223H125.201ZM129.315 30.8328V26.4447H140.468V30.8328H129.315Z" fill="white"/>
<path d="M146.715 39.8223L154.059 17.577H162.134L169.752 39.8223H164.572L158.416 21.0205L160.001 21.6604H156.07L157.716 21.0205L151.712 39.8223H146.715ZM152.291 34.3067L153.815 30.1624H162.53L164.084 34.3067H152.291Z" fill="white"/>
<path d="M176.275 39.9393V35.2769H180.419C181.455 35.2769 182.4 35.1245 183.223 34.8198C184.017 34.5323 184.739 34.0754 185.339 33.4807C185.939 32.8861 186.402 32.168 186.697 31.3764C187.009 30.4963 187.164 29.5678 187.154 28.6338C187.169 27.6895 187.014 26.7502 186.697 25.8608C186.408 25.0764 185.945 24.3674 185.343 23.787C184.742 23.2065 184.017 22.7695 183.223 22.5087C182.322 22.1926 181.373 22.0378 180.419 22.0516H176.275V17.3893H180.145C182.156 17.3893 183.924 17.694 185.417 18.273C186.94 18.8825 188.159 19.6748 189.195 20.6804C190.194 21.6699 190.963 22.866 191.45 24.1848C191.96 25.4961 192.219 26.8917 192.212 28.2986V28.969C192.199 31.77 191.12 34.4609 189.195 36.4958C188.116 37.5738 186.831 38.4236 185.417 38.9946C183.74 39.6568 181.947 39.978 180.145 39.9393H176.275ZM171.887 39.9393V17.3893H176.884V39.9393H171.887Z" fill="white"/>
<path d="M204.251 40.3954C202.405 40.4519 200.574 40.0543 198.918 39.2374C197.507 38.4785 196.36 37.3098 195.627 35.8854C194.842 34.2955 194.455 32.5386 194.5 30.766V17.5712H199.497V30.9488C199.497 31.9239 199.68 32.7772 200.046 33.5085C200.413 34.2018 200.974 34.7735 201.661 35.1541C202.462 35.561 203.353 35.7601 204.251 35.7331C205.287 35.7331 206.14 35.5502 206.841 35.1541C207.542 34.7579 208.09 34.2399 208.456 33.5085C208.841 32.7113 209.029 31.8336 209.005 30.9488V17.5712H214.002V30.766C214.047 32.5386 213.66 34.2955 212.875 35.8854C212.142 37.3098 210.994 38.4785 209.584 39.2374C207.929 40.0578 206.097 40.4557 204.251 40.3954Z" fill="white"/>
<path d="M112.677 68.3404C110.892 68.3799 109.117 68.0479 107.467 67.3653C106.101 66.7676 104.877 65.8887 103.874 64.7861C102.871 63.6835 102.112 62.3818 101.646 60.966C101.187 59.6534 100.95 58.2733 100.945 56.8826V56.2122C100.964 53.3778 101.954 50.6354 103.749 48.4416C104.693 47.3446 105.882 46.4609 107.284 45.821C108.716 45.181 110.331 44.8458 112.19 44.8458C114.03 44.8089 115.855 45.1947 117.523 45.9733C119.009 46.6576 120.291 47.7186 121.24 49.0511C122.187 50.3865 122.746 51.958 122.855 53.5915H117.858C117.747 52.801 117.408 52.0598 116.883 51.4584C116.347 50.829 115.668 50.3378 114.902 50.0262C114.044 49.6672 113.12 49.4908 112.19 49.5082C110.887 49.4496 109.603 49.8374 108.55 50.6076C107.497 51.3778 106.739 52.4842 106.4 53.7439C106.127 54.6634 105.993 55.6187 106.004 56.5779C106.004 57.6444 106.156 58.6501 106.43 59.5338C106.715 60.3731 107.16 61.1493 107.741 61.8192C108.324 62.4577 109.042 62.9575 109.843 63.2819C110.746 63.6362 111.708 63.8122 112.677 63.8C114.049 63.8 115.268 63.4952 116.273 62.9467C117.224 62.4457 117.992 61.6563 118.467 60.6917L117.858 64.1047V58.8024H122.459V63.5562C121.506 65.098 120.131 66.3351 118.498 67.1215C116.677 67.9685 114.685 68.3856 112.677 68.3404ZM112.037 59.7776V56.1817H124.288V59.7776H112.037Z" fill="white"/>
<path d="M126.756 67.7656V45.5204H131.753V67.7656H126.756ZM131.144 67.7656V63.3775H140.469V67.7656H131.144Z" fill="white"/>
<path d="M153.206 68.3442C150.775 68.4832 148.366 67.8186 146.35 66.4528C144.335 65.087 142.824 63.096 142.052 60.7869C141.603 59.5455 141.366 58.2371 141.352 56.9169V56.2465C141.378 53.3809 142.438 50.6213 144.338 48.4759C145.377 47.348 146.644 46.4546 148.056 45.8552C149.681 45.1565 151.437 44.8137 153.206 44.8496C155.156 44.8496 156.862 45.1848 158.355 45.8552C159.734 46.4352 160.977 47.2954 162.005 48.3814C163.033 49.4673 163.824 50.7551 164.328 52.1631C164.829 53.4664 165.087 54.8503 165.09 56.2465V56.9169C165.007 59.7145 163.975 62.4009 162.165 64.5351C161.136 65.7125 159.869 66.6577 158.447 67.3081C156.797 68.033 155.007 68.3867 153.206 68.3442ZM153.206 63.6819C154.178 63.6976 155.143 63.5108 156.04 63.1333C156.859 62.7843 157.597 62.2679 158.206 61.6172C158.815 60.9665 159.281 60.1959 159.574 59.3547C159.879 58.5015 160.031 57.5873 160.031 56.6121C160.043 55.6456 159.878 54.6852 159.544 53.7782C159.257 52.9354 158.789 52.1656 158.173 51.5232C157.582 50.8723 156.853 50.3621 156.04 50.03C155.139 49.6711 154.175 49.495 153.206 49.5119C152.236 49.495 151.273 49.6711 150.372 50.03C149.552 50.3659 148.815 50.8746 148.21 51.5215C147.605 52.1684 147.147 52.9381 146.867 53.7782C146.231 55.5825 146.231 57.5504 146.867 59.3547C147.16 60.188 147.616 60.9546 148.208 61.6097C148.844 62.2926 149.62 62.831 150.482 63.1885C151.344 63.546 152.273 63.7142 153.206 63.6819Z" fill="white"/>
<path d="M172.374 67.9121V64.0116H177.585C178.499 64.0116 179.23 63.7678 179.687 63.2802C180.186 62.7094 180.438 61.9643 180.388 61.208C180.388 60.2939 180.144 59.6235 179.687 59.1664C179.23 58.6788 178.529 58.435 177.585 58.435H172.374V55.4182H177.341C178.734 55.3963 180.122 55.5916 181.455 55.9972C182.557 56.3018 183.543 56.9277 184.289 57.7951C185.022 58.7649 185.389 59.9631 185.325 61.1776V61.6042C185.325 62.9145 185.02 64.042 184.41 65.0172C183.754 65.9912 182.82 66.7451 181.729 67.1807C180.328 67.7073 178.837 67.9558 177.341 67.9121H172.374ZM168.107 67.9121V45.3317H172.983V67.9121H168.107ZM172.374 57.6427V54.6564H176.762C177.706 54.6564 178.407 54.4126 178.834 53.925C179.281 53.3763 179.509 52.6816 179.474 51.9748C179.474 51.1215 179.261 50.4511 178.834 49.9635C178.407 49.476 177.706 49.2322 176.762 49.2322H172.374V45.3317H176.457C178.543 45.1931 180.615 45.7621 182.338 46.9467C183.027 47.4918 183.574 48.1943 183.935 48.995C184.296 49.7957 184.459 50.6713 184.41 51.5481V52.0052C184.471 53.2053 184.092 54.3863 183.344 55.3268C182.599 56.1941 181.612 56.82 180.51 57.1247C179.19 57.4885 177.826 57.6629 176.457 57.6427H172.374Z" fill="white"/>
<path d="M185.934 67.7656L193.278 45.5204H201.353L208.971 67.7656H203.791L197.635 48.9638L199.22 49.6038H195.289L196.934 48.9638L190.931 67.7656H185.934ZM191.51 62.25L193.034 58.1057H201.749L203.303 62.25H191.51Z" fill="white"/>
<path d="M211.104 67.7656V45.5204H216.101V67.7656H211.104ZM215.492 67.7656V63.3775H224.816V67.7656H215.492Z" fill="white"/>
<path d="M102.133 95.709V73.4638H110.33L118.71 91.6561H119.746L119.137 92.2046V73.4638H123.83V95.709H115.571L107.191 77.5167H106.155L106.765 76.9681V95.709H102.133Z" fill="white"/>
<path d="M128.066 95.709V73.4638H132.942V95.709H128.066ZM132.333 95.709V91.5647H142.053V95.709H132.333ZM132.333 86.4757V82.3314H141.353V86.4757H132.333ZM132.333 77.6081V73.4638H141.84V77.6081H132.333Z" fill="white"/>
<path d="M149.823 95.709V77.2119H154.821V95.709H149.823ZM143.576 77.8214V73.4638H161.098V77.8214H143.576Z" fill="white"/>
<path d="M167.468 95.709L161.982 73.4638H167.132L171.429 92.357L170.362 91.6561H173.136L171.947 92.357L175.269 74.2865H179.413L175.055 95.709H167.468ZM180.723 95.709L176.03 74.2865H180.388L184.228 92.357L183.07 91.6561H185.721L184.715 92.357L188.463 73.4638H193.339L188.463 95.709H180.723Z" fill="white"/>
<path d="M205.985 96.2895C203.554 96.4285 201.145 95.7639 199.13 94.3981C197.114 93.0323 195.604 91.0414 194.832 88.7322C194.382 87.4908 194.145 86.1824 194.131 84.8622V84.1918C194.157 81.3262 195.217 78.5666 197.117 76.4212C198.156 75.2933 199.423 74.3999 200.835 73.8005C202.46 73.1018 204.216 72.759 205.985 72.7949C207.935 72.7949 209.642 73.1301 211.135 73.8005C212.513 74.3805 213.756 75.2408 214.784 76.3267C215.812 77.4126 216.603 78.7004 217.107 80.1084C217.608 81.4117 217.866 82.7956 217.869 84.1918V84.8622C217.786 87.6598 216.755 90.3462 214.944 92.4804C213.915 93.6578 212.648 94.603 211.226 95.2534C209.576 95.9783 207.787 96.332 205.985 96.2895ZM205.985 91.6272C206.957 91.6429 207.922 91.4561 208.819 91.0787C209.639 90.7296 210.376 90.2132 210.985 89.5625C211.594 88.9119 212.06 88.1412 212.354 87.3C212.658 86.4468 212.811 85.5326 212.811 84.5574C212.822 83.591 212.657 82.6305 212.323 81.7235C212.036 80.8807 211.568 80.111 210.952 79.4685C210.361 78.8176 209.632 78.3074 208.819 77.9753C207.918 77.6164 206.954 77.4403 205.985 77.4573C205.015 77.4403 204.052 77.6164 203.151 77.9753C202.331 78.3112 201.594 78.82 200.989 79.4668C200.385 80.1137 199.927 80.8834 199.646 81.7235C199.01 83.5278 199.01 85.4957 199.646 87.3C199.939 88.1333 200.395 88.8999 200.987 89.555C201.623 90.2379 202.399 90.7763 203.261 91.1338C204.123 91.4913 205.052 91.6595 205.985 91.6272Z" fill="white"/>
<path d="M220.887 95.709V73.2809H225.884V95.709H220.887ZM234.386 95.709L227.865 86.1405H233.35L240.176 95.709H234.386ZM224.543 88.5783V84.6473H230.029C230.76 84.6473 231.4 84.4949 231.918 84.2207C232.466 83.916 232.893 83.4893 233.167 82.9713C233.472 82.4228 233.624 81.7829 233.624 81.082C233.64 80.4328 233.482 79.7912 233.167 79.2231C232.893 78.6854 232.456 78.2481 231.918 77.9737C231.34 77.6565 230.688 77.4988 230.029 77.5167H224.543V73.2809H229.632C231.461 73.2809 233.076 73.5856 234.447 74.1342C235.723 74.6138 236.819 75.4759 237.586 76.6025C238.357 77.8433 238.739 79.2868 238.683 80.7468V81.2343C238.738 82.6888 238.344 84.1249 237.555 85.3482C236.78 86.4594 235.685 87.3093 234.417 87.786C232.885 88.3469 231.263 88.6156 229.632 88.5783H224.543Z" fill="white"/>
<path d="M256.996 95.709L249.317 85.3177H246.239L255.564 73.4638H261.293L252.913 84.0988L252.852 81.9352L263.03 95.709H256.996ZM242.369 95.709V73.4638H247.367V95.709H242.369Z" fill="white"/>
</svg>
