<svg width="100" height="51" viewBox="0 0 100 51" fill="none" xmlns="http://www.w3.org/2000/svg">
<path fill-rule="evenodd" clip-rule="evenodd" d="M58.0566 46.0879V20.8428H59.5912V46.0879H58.0566Z" fill="#FD0202"/>
<mask id="mask0_502_86" style="mask-type:luminance" maskUnits="userSpaceOnUse" x="0" y="0" width="53" height="51">
<path d="M48.5933 0.5H3.58056C1.60307 0.5 0 2.03628 0 3.93137V47.0686C0 48.9637 1.60307 50.5 3.58056 50.5H48.5933C50.5708 50.5 52.1739 48.9637 52.1739 47.0686V3.93137C52.1739 2.03628 50.5708 0.5 48.5933 0.5Z" fill="white"/>
</mask>
<g mask="url(#mask0_502_86)">
<path d="M48.5933 0.5H3.58056C1.60307 0.5 0 2.03628 0 3.93137V47.0686C0 48.9637 1.60307 50.5 3.58056 50.5H48.5933C50.5708 50.5 52.1739 48.9637 52.1739 47.0686V3.93137C52.1739 2.03628 50.5708 0.5 48.5933 0.5Z" fill="#015680"/>
<path d="M9.07859 15.4512C12.3979 15.4512 15.0888 12.8725 15.0888 9.69144C15.0888 6.51039 12.3979 3.93164 9.07859 3.93164C5.75923 3.93164 3.06836 6.51039 3.06836 9.69144C3.06836 12.8725 5.75923 15.4512 9.07859 15.4512Z" fill="#FD0202"/>
<path d="M5.04925 46.0879L4.0094 43.0295H-4.27351L-5.34922 46.0879H-11.7676L-2.80338 20.8656H2.9337L11.4318 46.0879H5.04925ZM-2.19382 37.2222H2.07314L-0.00655556 31.1057L-2.19382 37.2222ZM34.6467 31.9648V46.0879H28.551V45.4692C27.8817 45.6984 27.1886 45.8702 26.4715 45.9847C25.7781 46.0763 25.085 46.1222 24.3917 46.1222C22.6945 46.1222 21.0332 45.8129 19.4076 45.1945C17.7821 44.5758 16.324 43.6481 15.0331 42.4111C13.7423 41.1739 12.7741 39.7881 12.1287 38.253C11.5072 36.6955 11.1964 35.1033 11.1964 33.4768C11.1964 31.8501 11.5072 30.2582 12.1287 28.7004C12.7741 27.1425 13.7423 25.7452 15.0331 24.5081C16.324 23.271 17.7821 22.3432 19.4076 21.7247C21.0332 21.1061 22.6945 20.7969 24.3917 20.7969C26.0889 20.7969 27.7502 21.1061 29.3758 21.7247C31.0014 22.3432 32.4595 23.271 33.7502 24.5081L29.4474 28.6315C28.7543 27.9673 27.9656 27.4746 27.0809 27.154C26.1965 26.8104 25.3001 26.6386 24.3917 26.6386C23.4834 26.6386 22.5869 26.8104 21.7025 27.154C20.818 27.4746 20.0292 27.9673 19.3359 28.6315C18.6427 29.2959 18.1168 30.0518 17.7582 30.8996C17.3997 31.7472 17.2204 32.6062 17.2204 33.4768C17.2204 34.3472 17.3997 35.2062 17.7582 36.054C18.1168 36.9016 18.6427 37.6575 19.3359 38.3219C19.9575 38.9175 20.6507 39.3871 21.4156 39.7307C22.2045 40.0516 23.0053 40.2462 23.818 40.3148C24.6547 40.3606 25.4794 40.2805 26.2922 40.0744C27.105 39.8682 27.8579 39.5246 28.551 39.0435V37.7722H23.2802V31.9648H34.6467ZM52.674 20.8656H58.7339V46.0879H52.172L43.5664 31.3805V46.0879H37.5065V20.9343H44.1042L52.674 35.6072V20.8656Z" fill="white"/>
</g>
<path d="M68.1497 26.6427H65.8044L65.4285 27.7064H63.8262L66.0998 21.6844H67.8722L70.1459 27.7064H68.5257L68.1497 26.6427ZM67.7558 25.5104L66.9771 23.3057L66.2072 25.5104H67.7558ZM73.9083 22.8682C74.4812 22.8682 74.9405 23.0512 75.2868 23.4172C75.6328 23.7775 75.806 24.2751 75.806 24.9099V27.7064H74.2842V25.1072C74.2842 24.7869 74.1975 24.5381 74.0246 24.3608C73.8515 24.1836 73.6188 24.0949 73.3264 24.0949C73.0338 24.0949 72.8011 24.1836 72.6282 24.3608C72.4551 24.5381 72.3686 24.7869 72.3686 25.1072V27.7064H70.8379V21.3584H72.3686V23.5631C72.5236 23.3515 72.7356 23.1827 73.0042 23.0569C73.2727 22.9311 73.574 22.8682 73.9083 22.8682ZM76.5653 25.3045C76.5653 24.8126 76.6607 24.3809 76.8517 24.0091C77.0487 23.6374 77.3142 23.3515 77.6484 23.1513C77.9824 22.9511 78.3556 22.851 78.7674 22.851C79.1193 22.851 79.4267 22.9197 79.6893 23.0569C79.9579 23.1942 80.1638 23.3743 80.307 23.5974V22.9197H81.8377V27.7064H80.307V27.0287C80.1576 27.2518 79.9489 27.4319 79.6804 27.5692C79.4177 27.7064 79.1103 27.7751 78.7584 27.7751C78.3525 27.7751 77.9824 27.6751 77.6484 27.4748C77.3142 27.2689 77.0487 26.9802 76.8517 26.6084C76.6607 26.2309 76.5653 25.7964 76.5653 25.3045ZM80.307 25.3131C80.307 24.9471 80.1996 24.6582 79.9847 24.4466C79.7758 24.235 79.5193 24.1292 79.2149 24.1292C78.9106 24.1292 78.651 24.235 78.4361 24.4466C78.2272 24.6525 78.1228 24.9385 78.1228 25.3045C78.1228 25.6704 78.2272 25.9621 78.4361 26.1795C78.651 26.391 78.9106 26.4969 79.2149 26.4969C79.5193 26.4969 79.7758 26.391 79.9847 26.1795C80.1996 25.968 80.307 25.679 80.307 25.3131ZM82.6408 25.3045C82.6408 24.8126 82.7361 24.3809 82.9272 24.0091C83.1241 23.6374 83.3896 23.3515 83.7239 23.1513C84.0579 22.9511 84.431 22.851 84.8428 22.851C85.1709 22.851 85.4694 22.9168 85.7379 23.0484C86.0124 23.1799 86.2272 23.3572 86.3824 23.5802V21.3584H87.9131V27.7064H86.3824V27.0202C86.2392 27.2488 86.0333 27.4319 85.7648 27.5692C85.5021 27.7064 85.1947 27.7751 84.8428 27.7751C84.431 27.7751 84.0579 27.6751 83.7239 27.4748C83.3896 27.2689 83.1241 26.9802 82.9272 26.6084C82.7361 26.2309 82.6408 25.7964 82.6408 25.3045ZM86.3824 25.3131C86.3824 24.9471 86.275 24.6582 86.0602 24.4466C85.8512 24.235 85.5947 24.1292 85.2904 24.1292C84.986 24.1292 84.7264 24.235 84.5116 24.4466C84.3026 24.6525 84.1983 24.9385 84.1983 25.3045C84.1983 25.6704 84.3026 25.9621 84.5116 26.1795C84.7264 26.391 84.986 26.4969 85.2904 26.4969C85.5947 26.4969 85.8512 26.391 86.0602 26.1795C86.275 25.968 86.3824 25.679 86.3824 25.3131ZM93.9525 22.9197V27.7064H92.4218V27.0545C92.2668 27.266 92.0548 27.4376 91.7863 27.5692C91.5239 27.6949 91.2313 27.7579 90.909 27.7579C90.5272 27.7579 90.1901 27.6778 89.8975 27.5177C89.6052 27.3518 89.3783 27.1145 89.2172 26.8057C89.0561 26.4969 88.9755 26.1336 88.9755 25.7162V22.9197H90.4973V25.5189C90.4973 25.8393 90.584 26.0881 90.7569 26.2653C90.93 26.4425 91.1627 26.5312 91.4551 26.5312C91.7535 26.5312 91.9893 26.4425 92.1622 26.2653C92.3354 26.0881 92.4218 25.8393 92.4218 25.5189V22.9197H93.9525ZM69.0985 32.5287C68.9254 32.18 68.6748 31.9111 68.3466 31.7224C68.0185 31.528 67.6364 31.4307 67.2009 31.4307C66.7653 31.4307 66.3714 31.528 66.0193 31.7224C65.6732 31.9111 65.3985 32.1856 65.1957 32.5459C64.9988 32.9006 64.9003 33.3123 64.9003 33.7812C64.9003 34.2501 64.9988 34.6618 65.1957 35.0165C65.3985 35.3711 65.6732 35.6457 66.0193 35.84C66.3714 36.0287 66.7653 36.1231 67.2009 36.1231C67.8096 36.1231 68.3108 35.9486 68.7047 35.5998C69.0986 35.251 69.3282 34.7792 69.3939 34.1844H66.9055V33.5496H70.2622V34.1501C70.2144 34.642 70.0533 35.0937 69.7789 35.5055C69.5044 35.9116 69.1433 36.2346 68.6957 36.4748C68.2482 36.7094 67.75 36.8265 67.2009 36.8265C66.6221 36.8265 66.0939 36.6979 65.6165 36.4405C65.139 36.1775 64.7602 35.8143 64.4796 35.351C64.2052 34.8878 64.0679 34.3645 64.0679 33.7812C64.0679 33.1979 64.2052 32.6746 64.4796 32.2113C64.7602 31.7425 65.139 31.3792 65.6165 31.1219C66.0939 30.8589 66.6221 30.7273 67.2009 30.7273C67.8633 30.7273 68.4482 30.8846 68.9553 31.1991C69.4686 31.5135 69.8415 31.9569 70.0743 32.5287H69.0985ZM72.1538 30.427V36.7751H71.3392V30.427H72.1538ZM75.6814 36.8523C75.2221 36.8523 74.8042 36.7523 74.4282 36.552C74.0584 36.3518 73.7658 36.0687 73.551 35.7028C73.3423 35.3309 73.2377 34.902 73.2377 34.416C73.2377 33.9356 73.3451 33.5123 73.5599 33.1464C73.7809 32.7746 74.0791 32.4915 74.4551 32.2971C74.831 32.0969 75.2517 31.9969 75.7172 31.9969C76.1827 31.9969 76.6034 32.0969 76.9794 32.2971C77.3553 32.4915 77.6507 32.7719 77.8656 33.1378C78.0865 33.5037 78.1968 33.93 78.1968 34.416C78.1968 34.902 78.0835 35.3309 77.8566 35.7028C77.6359 36.0687 77.3346 36.3518 76.9525 36.552C76.5707 36.7523 76.1469 36.8523 75.6814 36.8523ZM75.6814 36.166C75.974 36.166 76.2484 36.1003 76.5049 35.9687C76.7617 35.8371 76.9676 35.6398 77.1226 35.3768C77.2837 35.1138 77.3643 34.7934 77.3643 34.416C77.3643 34.0385 77.2868 33.7182 77.1315 33.4552C76.9766 33.1922 76.7735 32.9976 76.5229 32.8719C76.2722 32.7403 76.0009 32.6746 75.7083 32.6746C75.4101 32.6746 75.1354 32.7403 74.8847 32.8719C74.6402 32.9976 74.4433 33.1922 74.294 33.4552C74.1448 33.7182 74.0702 34.0385 74.0702 34.416C74.0702 34.7991 74.1418 35.1224 74.285 35.3854C74.4344 35.6483 74.6313 35.8457 74.8758 35.9773C75.1205 36.103 75.3891 36.166 75.6814 36.166ZM80.0824 32.9491C80.2497 32.6689 80.4942 32.44 80.8165 32.2628C81.1387 32.0856 81.5057 31.9969 81.9175 31.9969C82.3592 31.9969 82.7561 32.0969 83.108 32.2971C83.4602 32.4974 83.7377 32.7805 83.9405 33.1464C84.1436 33.5067 84.2448 33.927 84.2448 34.4074C84.2448 34.8822 84.1436 35.3052 83.9405 35.677C83.7377 36.0488 83.4571 36.3376 83.0991 36.5434C82.7471 36.7493 82.3533 36.8523 81.9175 36.8523C81.4939 36.8523 81.1208 36.7635 80.7986 36.5863C80.4824 36.4091 80.2436 36.1832 80.0824 35.9086V36.7751H79.2679V30.427H80.0824V32.9491ZM83.4124 34.4074C83.4124 34.0528 83.3379 33.7439 83.1886 33.4809C83.0395 33.218 82.8367 33.0177 82.5799 32.8805C82.3292 32.7432 82.0517 32.6746 81.7474 32.6746C81.4492 32.6746 81.1717 32.7461 80.9149 32.889C80.6643 33.0263 80.4615 33.2292 80.3062 33.4981C80.1571 33.7611 80.0824 34.0672 80.0824 34.416C80.0824 34.7707 80.1571 35.0822 80.3062 35.351C80.4615 35.614 80.6643 35.8172 80.9149 35.9601C81.1717 36.0974 81.4492 36.166 81.7474 36.166C82.0517 36.166 82.3292 36.0974 82.5799 35.9601C82.8367 35.8172 83.0395 35.614 83.1886 35.351C83.3379 35.0822 83.4124 34.7677 83.4124 34.4074ZM85.0129 34.4074C85.0129 33.927 85.1142 33.5067 85.3172 33.1464C85.52 32.7805 85.7975 32.4974 86.1497 32.2971C86.5078 32.0969 86.9044 31.9969 87.3402 31.9969C87.7699 31.9969 88.1428 32.0856 88.4592 32.2628C88.7753 32.44 89.0111 32.6631 89.1663 32.9319V32.0741H89.9899V36.7751H89.1663V35.9001C89.0052 36.1746 88.7635 36.4032 88.4413 36.5863C88.1249 36.7635 87.7548 36.8523 87.3313 36.8523C86.8955 36.8523 86.5016 36.7493 86.1497 36.5434C85.7975 36.3376 85.52 36.0488 85.3172 35.677C85.1142 35.3052 85.0129 34.8822 85.0129 34.4074ZM89.1663 34.416C89.1663 34.0613 89.0917 33.7525 88.9425 33.4895C88.7932 33.2265 88.5904 33.0263 88.3339 32.889C88.0832 32.7461 87.8057 32.6746 87.5014 32.6746C87.197 32.6746 86.9195 32.7432 86.6689 32.8805C86.4182 33.0177 86.2182 33.218 86.0691 33.4809C85.9198 33.7439 85.8454 34.0528 85.8454 34.4074C85.8454 34.7677 85.9198 35.0822 86.0691 35.351C86.2182 35.614 86.4182 35.8172 86.6689 35.9601C86.9195 36.0974 87.197 36.166 87.5014 36.166C87.8057 36.166 88.0832 36.0974 88.3339 35.9601C88.5904 35.8172 88.7932 35.614 88.9425 35.351C89.0917 35.0822 89.1663 34.7707 89.1663 34.416ZM92.1809 30.427V36.7751H91.3663V30.427H92.1809ZM69.2776 45.8437H68.463L65.1868 41.0827V45.8437H64.3722V39.8559H65.1868L68.463 44.6084V39.8559H69.2776V45.8437ZM75.1418 43.3131C75.1418 43.4618 75.1328 43.6189 75.1149 43.7849H71.1942C71.2241 44.2481 71.3883 44.6113 71.6865 44.8743C71.9909 45.1317 72.3579 45.2604 72.7876 45.2604C73.1397 45.2604 73.4321 45.1832 73.6648 45.0287C73.9037 44.8687 74.0707 44.6569 74.1661 44.3939H75.0433C74.9121 44.8457 74.6494 45.2145 74.2556 45.5006C73.8617 45.7807 73.3725 45.9209 72.7876 45.9209C72.3221 45.9209 71.9044 45.8209 71.5344 45.6207C71.1704 45.4204 70.884 45.1373 70.675 44.7714C70.4663 44.3996 70.3617 43.9707 70.3617 43.4846C70.3617 42.9986 70.4633 42.5724 70.6661 42.2064C70.8691 41.8405 71.1525 41.5601 71.5165 41.3657C71.8865 41.1655 72.3103 41.0655 72.7876 41.0655C73.253 41.0655 73.6648 41.1628 74.0228 41.3572C74.3809 41.5515 74.6556 41.8204 74.8464 42.1635C75.0433 42.501 75.1418 42.8841 75.1418 43.3131ZM74.3003 43.1501C74.3003 42.8528 74.2318 42.5981 74.0945 42.3866C73.9574 42.1692 73.7694 42.0062 73.5305 41.8976C73.2978 41.7832 73.0382 41.726 72.7518 41.726C72.34 41.726 71.9881 41.8518 71.6955 42.1035C71.409 42.3552 71.2451 42.704 71.2032 43.1501H74.3003ZM77.2106 41.7861V44.5569C77.2106 44.7856 77.2615 44.9486 77.3627 45.0459C77.4643 45.1373 77.6402 45.1832 77.8909 45.1832H78.4906V45.8437H77.7566C77.3032 45.8437 76.963 45.7437 76.7361 45.5434C76.5095 45.3432 76.396 45.0145 76.396 44.5569V41.7861H75.7604V41.1427H76.396V39.9589H77.2106V41.1427H78.4906V41.7861H77.2106ZM86.0124 41.1427L84.4817 45.8437H83.6402L82.4587 42.1121L81.2771 45.8437H80.4356L78.896 41.1427H79.7285L80.8564 45.0888L82.0737 41.1427H82.9062L84.0968 45.0974L85.2067 41.1427H86.0124ZM88.9599 45.9209C88.5006 45.9209 88.0827 45.8209 87.7067 45.6207C87.3369 45.4204 87.0443 45.1373 86.8295 44.7714C86.6208 44.3996 86.5162 43.9707 86.5162 43.4846C86.5162 43.0042 86.6236 42.5809 86.8384 42.215C87.0594 41.8432 87.3576 41.5601 87.7336 41.3657C88.1096 41.1655 88.5303 41.0655 88.9957 41.0655C89.4612 41.0655 89.8819 41.1655 90.2579 41.3657C90.6338 41.5601 90.9292 41.8405 91.1441 42.2064C91.365 42.5724 91.4753 42.9986 91.4753 43.4846C91.4753 43.9707 91.362 44.3996 91.1351 44.7714C90.9144 45.1373 90.6131 45.4204 90.231 45.6207C89.8492 45.8209 89.4254 45.9209 88.9599 45.9209ZM88.9599 45.2346C89.2525 45.2346 89.5269 45.1689 89.7835 45.0373C90.0402 44.9057 90.2461 44.7084 90.4011 44.4454C90.5622 44.1824 90.6428 43.8621 90.6428 43.4846C90.6428 43.1072 90.5653 42.7868 90.4101 42.5238C90.2551 42.2608 90.052 42.0662 89.8014 41.9405C89.5507 41.8089 89.2794 41.7432 88.9868 41.7432C88.6886 41.7432 88.4139 41.8089 88.1633 41.9405C87.9188 42.0662 87.7218 42.2608 87.5725 42.5238C87.4234 42.7868 87.3487 43.1072 87.3487 43.4846C87.3487 43.8677 87.4203 44.191 87.5635 44.454C87.7129 44.717 87.9098 44.9143 88.1543 45.0459C88.3991 45.1716 88.6676 45.2346 88.9599 45.2346ZM93.361 41.9062C93.5042 41.6373 93.707 41.4287 93.9697 41.28C94.2382 41.1312 94.5635 41.0569 94.9454 41.0569V41.8633H94.7305C93.8175 41.8633 93.361 42.3381 93.361 43.2873V45.8437H92.5464V41.1427H93.361V41.9062ZM98.6249 45.8437L96.7003 43.7677V45.8437H95.8858V39.4957H96.7003V43.2273L98.5891 41.1427H99.7259L97.4165 43.4846L99.7349 45.8437H98.6249Z" fill="#111111"/>
</svg>
