<svg width="70" height="69" viewBox="0 0 70 69" fill="none" xmlns="http://www.w3.org/2000/svg">
<path d="M4.26291 36.9981L0 35.5846L0.0034397 34.0407L4.27272 32.5936L4.27051 33.584L0.662215 34.7529L0.785611 34.4502L0.783937 35.2018L0.661916 34.8869L4.26503 36.0426L4.26291 36.9981ZM3.20754 35.9296L2.41342 35.6365L2.41713 33.9703L3.21256 33.6749L3.20754 35.9296Z" fill="#004659"/>
<path d="M41.5287 39.0381C40.1878 39.0381 39.0945 37.9481 39.0945 36.6075V34.1808H41.5287C42.8734 34.1808 43.9628 35.2708 43.9628 36.6075C43.9628 37.9481 42.8734 39.0381 41.5287 39.0381ZM31.095 36.6075C31.095 37.9481 30.0017 39.0381 28.6607 39.0381C27.3161 39.0381 26.2228 37.9481 26.2228 36.6075C26.2228 35.2708 27.3161 34.1808 28.6607 34.1808H31.095V36.6075ZM41.5287 31.3477H39.0945V25.8032C38.1498 25.6931 37.1974 25.6247 36.249 25.5943V31.3477H33.9366V25.5981C32.9882 25.6247 32.0397 25.6931 31.095 25.7993V31.3477H28.6607C25.7504 31.3477 23.381 33.7061 23.381 36.6075C23.381 39.509 25.7504 41.8711 28.6607 41.8711C31.5711 41.8711 33.9366 39.509 33.9366 36.6075V34.1808H36.249V36.6075C36.249 39.509 38.6184 41.8711 41.5287 41.8711C44.439 41.8711 46.8084 39.509 46.8084 36.6075C46.8084 33.7061 44.439 31.3477 41.5287 31.3477Z" fill="#FF6E1F"/>
<path d="M47.0521 22.9018L46.1936 25.5943L46.0592 25.5525C43.7411 24.7854 41.3858 24.2614 39.0117 23.9917C38.086 23.8816 37.1528 23.8132 36.2234 23.7829C35.4693 23.7563 34.7116 23.7563 33.9576 23.7866C33.0281 23.8132 32.0987 23.8816 31.173 23.9879C28.7504 24.2652 26.3391 24.8007 23.9725 25.5943L23.0991 22.9018C30.8893 20.2852 39.1238 20.27 46.9214 22.8563L47.0521 22.9018Z" fill="#FF6E1F"/>
<path d="M35.0717 47.8074C31.089 47.8074 27.1061 47.1647 23.2317 45.8785L23.0991 45.8346L23.9635 43.1399L24.0957 43.1838C31.3208 45.5822 38.9555 45.5675 46.1726 43.1415L47.0464 45.8329C43.1309 47.1491 39.1013 47.8074 35.0717 47.8074Z" fill="#FF6E1F"/>
<path d="M28.0001 19.7924L27.4696 17.227C32.5423 16.1433 37.5692 16.0712 42.6577 17.0595L42.1212 19.6245C37.3701 18.7013 32.7363 18.7804 28.0001 19.7924Z" fill="#FF6E1F"/>
<path d="M34.7122 52.3587C32.2935 52.3587 29.8749 52.123 27.4696 51.6516L27.95 49.0768C32.6591 49.9999 37.4268 49.9547 42.1213 48.9429L42.6471 51.5083C40.017 52.0751 37.3649 52.3587 34.7122 52.3587Z" fill="#FF6E1F"/>
<path d="M4.96571 28.3227L0.773541 27.5347L0.951121 26.5957L5.14329 27.3838L4.96571 28.3227ZM4.45463 31.025L0.26246 30.2369L0.440039 29.298L4.63221 30.086L4.45463 31.025ZM2.90671 29.9336L2.07976 29.7782L2.47607 27.6828L3.30302 27.8382L2.90671 29.9336Z" fill="#004659"/>
<path d="M5.54706 25.857L2.0769 23.0125L2.63585 21.5727L7.14163 21.7494L6.78306 22.6731L2.99437 22.4732L3.2185 22.2348L2.94641 22.9357L2.94586 22.5982L5.89297 24.9659L5.54706 25.857ZM4.9466 24.4821L4.31087 23.9245L4.91411 22.3705L5.76287 22.3794L4.9466 24.4821Z" fill="#004659"/>
<path d="M8.33877 19.6448L7.5767 19.1786L7.99237 18.5032C8.09629 18.3344 8.16512 18.1669 8.19885 18.0007C8.22927 17.8325 8.22753 17.6719 8.19365 17.519C8.15644 17.3641 8.08671 17.2212 7.98445 17.0903C7.87887 16.9573 7.74472 16.8411 7.58202 16.7416C7.41267 16.638 7.2463 16.5704 7.08291 16.5388C6.91952 16.5072 6.76179 16.5109 6.60973 16.5501C6.45766 16.5892 6.31661 16.6624 6.18658 16.7697C6.05323 16.8749 5.93459 17.012 5.83067 17.1808L5.415 17.8561L4.65292 17.3899L5.04109 16.7593C5.24281 16.4316 5.46722 16.1747 5.7143 15.9886C5.96138 15.8025 6.21888 15.6775 6.48679 15.6136C6.7547 15.5496 7.02102 15.5439 7.28577 15.5965C7.54922 15.6438 7.79883 15.7395 8.0346 15.8838L8.14417 15.9508C8.36333 16.0849 8.55536 16.2593 8.72026 16.4741C8.88387 16.6836 9.00108 16.9239 9.07186 17.195C9.13933 17.4641 9.14914 17.7527 9.1013 18.0606C9.05345 18.3686 8.92867 18.6864 8.72694 19.0141L8.33877 19.6448ZM7.89864 20.3598L4.21279 18.105L4.71405 17.2906L8.3999 19.5455L7.89864 20.3598Z" fill="#004659"/>
<path d="M12.2319 14.444C11.9637 14.7416 11.6808 14.9451 11.3832 15.0544C11.0853 15.1583 10.7853 15.1716 10.4832 15.0941C10.1811 15.0167 9.88947 14.8521 9.60838 14.6003L7.7262 12.9142L8.36676 12.2035L10.275 13.913C10.4141 14.0376 10.5593 14.1206 10.7105 14.162C10.8614 14.198 11.0086 14.1915 11.1522 14.1426C11.2984 14.0908 11.4366 13.9927 11.5668 13.8483C11.6996 13.7009 11.7827 13.5535 11.8162 13.4059C11.8523 13.2555 11.843 13.1088 11.7885 12.966C11.7339 12.8231 11.6357 12.6881 11.4937 12.5609L9.5854 10.8514L10.226 10.1407L12.1081 11.8268C12.3892 12.0786 12.5845 12.3501 12.6939 12.6414C12.8033 12.9326 12.8221 13.2313 12.7502 13.5377C12.6755 13.8415 12.5027 14.1436 12.2319 14.444Z" fill="#004659"/>
<path d="M18.37 9.23C18.0495 9.43695 17.7361 9.56535 17.4296 9.6152C17.121 9.66179 16.83 9.64612 16.5565 9.5682C16.2863 9.48816 16.0427 9.36323 15.8256 9.1934C15.6084 9.02356 15.4289 8.82945 15.287 8.61104L15.2171 8.50347C15.0709 8.27855 14.9655 8.03423 14.9009 7.77051C14.8363 7.5068 14.8221 7.23836 14.8581 6.96519C14.8974 6.68991 14.9959 6.42726 15.1538 6.17724C15.3149 5.9251 15.5442 5.70295 15.8417 5.51078C16.1654 5.30171 16.4907 5.17724 16.8176 5.13736C17.1424 5.09421 17.4488 5.13001 17.7369 5.24476C18.0229 5.35624 18.2673 5.54313 18.4703 5.80543L17.6659 6.32492C17.5616 6.2072 17.4351 6.1269 17.2865 6.08401C17.1412 6.03901 16.9852 6.03104 16.8184 6.0601C16.6549 6.08704 16.4914 6.1533 16.3279 6.25889C16.1709 6.36026 16.0483 6.47877 15.9601 6.61443C15.8751 6.74798 15.8213 6.89379 15.7987 7.05186C15.7794 7.20782 15.7923 7.37067 15.8376 7.5404C15.8841 7.70476 15.9613 7.87007 16.0694 8.03632C16.1816 8.20908 16.3073 8.3524 16.4462 8.46626C16.5864 8.57476 16.7361 8.65159 16.8954 8.69678C17.0527 8.7387 17.2163 8.74408 17.3864 8.71291C17.5597 8.67963 17.7298 8.60914 17.8965 8.50144C18.1189 8.35785 18.2821 8.18761 18.3863 7.99075C18.4905 7.79389 18.5298 7.59726 18.5043 7.40085L18.7621 8.01184L18.2092 7.16105L18.9498 6.68273L19.4455 7.44551C19.4528 7.79251 19.3642 8.12047 19.1796 8.4294C18.9963 8.73295 18.7264 8.99982 18.37 9.23ZM17.3741 7.92253L16.9992 7.34556L18.9709 6.07217L19.3458 6.64914L17.3741 7.92253Z" fill="#004659"/>
<path d="M21.6895 7.24286L19.9519 3.35862L20.8272 2.96947L22.5648 6.8537L21.6895 7.24286ZM22.458 6.90116L22.1153 6.13495L23.7484 5.40884L24.0912 6.17504L22.458 6.90116Z" fill="#004659"/>
<path d="M27.5957 5.24607C27.2215 5.33933 26.8785 5.35677 26.5667 5.29836C26.2577 5.23525 25.9861 5.1208 25.7518 4.95501C25.5165 4.78545 25.3223 4.58763 25.1692 4.36155C25.0199 4.13453 24.9164 3.90609 24.8588 3.67624L24.8276 3.5519C24.7634 3.29567 24.7454 3.03191 24.7738 2.76061C24.8049 2.4846 24.8876 2.22178 25.0218 1.97214C25.156 1.72251 25.3459 1.50302 25.5916 1.31367C25.8363 1.12056 26.1401 0.978779 26.5029 0.888342C26.8657 0.797905 27.2007 0.780475 27.5078 0.83605C27.814 0.887857 28.0851 0.992417 28.3214 1.14973C28.5576 1.30704 28.7546 1.50015 28.9124 1.72906C29.0693 1.9542 29.1798 2.19488 29.2441 2.45111L29.2753 2.57545C29.3329 2.8053 29.3476 3.05588 29.3192 3.32718C29.2909 3.59848 29.2129 3.86412 29.0854 4.12412C28.9568 4.38035 28.7693 4.60926 28.5227 4.81085C28.2789 5.00774 27.9699 5.15281 27.5957 5.24607ZM27.3789 4.38131C27.5754 4.33232 27.7427 4.2546 27.8806 4.14815C28.0223 4.04076 28.1329 3.91312 28.2123 3.76522C28.2954 3.61639 28.3455 3.45577 28.3625 3.28338C28.3795 3.111 28.3653 2.93437 28.32 2.7535C28.2718 2.56133 28.1976 2.39366 28.0974 2.25047C28.0001 2.10258 27.8801 1.98436 27.7374 1.89581C27.5976 1.80255 27.4421 1.74321 27.2711 1.71777C27.1001 1.69234 26.9163 1.70412 26.7198 1.75311C26.5232 1.80209 26.3555 1.87793 26.2166 1.98061C26.0777 2.08329 25.9667 2.20905 25.8835 2.35789C25.8032 2.50201 25.755 2.66216 25.739 2.83831C25.722 3.0107 25.7376 3.19298 25.7858 3.38515C25.8311 3.56601 25.902 3.72851 25.9984 3.87264C26.0947 4.01676 26.2129 4.13546 26.3527 4.22871C26.4963 4.32103 26.6541 4.38179 26.8261 4.41099C26.9981 4.44019 27.1823 4.43029 27.3789 4.38131Z" fill="#004659"/>
<path d="M32.3405 4.3638L32.2938 3.61952L33.2912 3.55728C33.47 3.54612 33.6013 3.49123 33.6848 3.39262C33.7684 3.294 33.8049 3.15941 33.7942 2.98885C33.7835 2.81829 33.7306 2.69122 33.6356 2.60764C33.5403 2.52019 33.4032 2.48204 33.2244 2.4932L32.227 2.55545L32.1909 1.9798L33.1415 1.92047C33.4371 1.90203 33.7018 1.92247 33.9359 1.98181C34.1697 2.03727 34.3576 2.14034 34.4998 2.29102C34.642 2.4417 34.7216 2.65272 34.7387 2.92407L34.7438 3.00547C34.7596 3.25744 34.7149 3.47816 34.6097 3.66763C34.5042 3.85323 34.3418 4.00152 34.1224 4.1125C33.9027 4.21961 33.6256 4.2836 33.2912 4.30447L32.3405 4.3638ZM31.524 4.41476L31.2535 0.106113L32.1867 0.047875L32.4572 4.35652L31.524 4.41476ZM32.2175 2.40427L32.1817 1.83443L33.0216 1.78202C33.2044 1.77061 33.3336 1.71585 33.4094 1.61772C33.4853 1.51959 33.5183 1.39299 33.5086 1.23794C33.4983 1.07513 33.4495 0.949752 33.362 0.861814C33.2745 0.773875 33.1394 0.735609 32.9566 0.747014L32.1167 0.799428L32.07 0.0551547L32.8516 0.00638055C33.3415 -0.0241943 33.7232 0.0551144 33.9966 0.244307C34.2739 0.433256 34.4245 0.717676 34.4483 1.09757L34.4538 1.18478C34.4703 1.44838 34.4156 1.66389 34.2894 1.83132C34.1672 1.9985 33.9936 2.12414 33.7686 2.20823C33.5472 2.28821 33.2907 2.33729 32.9991 2.35549L32.2175 2.40427Z" fill="#004659"/>
<path d="M36.1186 4.17262L37.9854 0.0988684L39.5247 0.267854L40.51 4.65471L39.5225 4.54631L38.7438 0.844441L39.0324 0.999212L38.2831 0.916951L38.6102 0.829774L37.0712 4.2772L36.1186 4.17262ZM37.2973 3.24115L37.6748 2.48545L39.3361 2.66783L39.5453 3.48793L37.2973 3.24115Z" fill="#004659"/>
<path d="M42.0642 5.03965L43.205 0.941552L44.1285 1.19706L42.9877 5.29516L42.0642 5.03965ZM42.875 5.264L43.1001 4.45561L44.8232 4.93235L44.5981 5.74074L42.875 5.264Z" fill="#004659"/>
<path d="M48.3271 7.20291L50.43 3.50255L51.7978 4.27509L51.4762 8.09104L51.6491 8.18869L51.4956 8.22249L53.2672 5.10506L54.0502 5.54733L51.9473 9.2477L50.5694 8.46942L50.8909 4.65346L50.718 4.55581L50.8716 4.52201L49.1 7.63944L48.3271 7.20291Z" fill="#004659"/>
<path d="M53.5497 10.4312L56.2611 7.14766L56.983 7.74011L54.2716 11.0236L53.5497 10.4312ZM54.1814 10.9496L54.6865 10.3378L56.1258 11.519L55.6206 12.1308L54.1814 10.9496ZM55.3068 9.58668L55.8119 8.97496L57.1474 10.071L56.6423 10.6827L55.3068 9.58668ZM56.3876 8.27777L56.8927 7.66605L58.3004 8.82133L57.7953 9.43305L56.3876 8.27777Z" fill="#004659"/>
<path d="M57.5087 14.0316L60.1478 11.6685L60.7882 12.3794L58.1491 14.7424L57.5087 14.0316ZM59.2603 10.8579L59.882 10.3011L62.1274 12.7934L61.5057 13.3501L59.2603 10.8579Z" fill="#004659"/>
<path d="M60.3869 17.5377L63.5213 14.468L64.0246 15.3152L61.3271 17.8628L61.3385 17.619L61.6095 18.0752L61.3777 17.948L64.684 16.7337L65.089 17.4155L61.1284 18.7859L60.3869 17.5377ZM61.6824 19.7182L64.7585 16.859L65.1843 17.5759L62.5779 19.9681L62.5804 19.7093L62.8395 20.1454L62.6256 20.0483L66.1093 18.8241L66.5858 19.6261L62.4388 20.9915L61.6824 19.7182Z" fill="#004659"/>
<path d="M64.0051 25.1994C63.8827 24.8348 63.8386 24.4953 63.8727 24.1808C63.9117 23.8688 64.005 23.5898 64.1525 23.344C64.3038 23.097 64.4865 22.8885 64.7006 22.7188C64.916 22.5527 65.1364 22.4321 65.3618 22.3569L65.4837 22.3162C65.7349 22.2324 65.9973 22.194 66.2708 22.201C66.5492 22.2105 66.8185 22.2722 67.0786 22.3861C67.3387 22.5 67.573 22.6716 67.7815 22.9011C67.9936 23.1293 68.1591 23.4201 68.2778 23.7737C68.3965 24.1273 68.44 24.4589 68.4084 24.7684C68.3804 25.0768 68.297 25.3544 68.1581 25.6015C68.0192 25.8485 67.8414 26.0594 67.6248 26.2341C67.4119 26.4075 67.1798 26.5361 66.9286 26.62L66.8067 26.6607C66.5813 26.7359 66.3319 26.7699 66.0584 26.7629C65.7849 26.7559 65.5131 26.6991 65.2432 26.5926C64.9769 26.4848 64.7334 26.3162 64.5126 26.0868C64.2967 25.8599 64.1276 25.5641 64.0051 25.1994ZM64.853 24.9165C64.9173 25.108 65.0081 25.2682 65.1253 25.397C65.2437 25.5295 65.38 25.6295 65.5341 25.6968C65.6894 25.7679 65.8539 25.8051 66.0276 25.8086C66.2013 25.8121 66.3769 25.7842 66.5542 25.7251C66.7426 25.6622 66.9045 25.5754 67.0399 25.4647C67.1802 25.3564 67.2891 25.2279 67.3665 25.0792C67.4489 24.933 67.4961 24.7739 67.5082 24.6019C67.5203 24.4299 67.4942 24.2482 67.4299 24.0567C67.3656 23.8651 67.2767 23.7043 67.1632 23.5743C67.0497 23.4442 66.9153 23.3437 66.76 23.2726C66.6096 23.204 66.4457 23.1686 66.2683 23.1664C66.0946 23.1629 65.9135 23.1926 65.7251 23.2555C65.5477 23.3147 65.3908 23.3978 65.2541 23.5048C65.1175 23.6118 65.008 23.7385 64.9257 23.8847C64.8445 24.0347 64.7961 24.1962 64.7803 24.3694C64.7645 24.5426 64.7887 24.725 64.853 24.9165Z" fill="#004659"/>
<path d="M65.1788 29.0331L69.4393 28.4448L69.5707 29.3913L65.3103 29.9796L65.1788 29.0331ZM65.534 31.5897L67.1801 30.1037L67.3244 31.1425L65.6863 32.6861L65.534 31.5897ZM66.6296 29.5386L67.3763 29.4355L67.5206 30.4743C67.5399 30.6128 67.5835 30.7283 67.6514 30.8209C67.7237 30.9168 67.8138 30.9847 67.9216 31.0247C68.0338 31.068 68.1574 31.0804 68.2925 31.0617C68.4276 31.0431 68.5413 30.9979 68.6336 30.9264C68.7303 30.8581 68.7985 30.7683 68.838 30.657C68.882 30.549 68.8944 30.4257 68.8752 30.2872L68.7308 29.2485L69.5355 29.1373L69.6694 30.1011C69.718 30.4512 69.7062 30.7626 69.634 31.0353C69.5656 31.3074 69.4368 31.5271 69.2477 31.6944C69.0585 31.8617 68.8057 31.9672 68.4893 32.0109L68.3967 32.0237C68.0841 32.0668 67.8137 32.0316 67.5855 31.9181C67.3618 31.8078 67.1799 31.631 67.0399 31.3876C66.9042 31.1475 66.8121 30.8525 66.7635 30.5024L66.6296 29.5386Z" fill="#004659"/>
<path d="M65.6304 37.0755L67.6777 35.6839L67.7002 35.0959L69.9038 36.9636L69.862 38.0581L67.8851 36.3798L68.3001 36.3838L65.5864 38.2282L65.6304 37.0755ZM65.737 34.281L70 34.4427L69.9636 35.3975L65.7006 35.2358L65.737 34.281Z" fill="#004659"/>
<path d="M5.60267 47.5023L5.4615 47.1316C5.56012 47.0692 5.63949 46.9952 5.6996 46.9098C5.76008 46.8253 5.80302 46.7338 5.8284 46.6352C5.85517 46.5373 5.86471 46.4362 5.85703 46.3319C5.84935 46.2276 5.82616 46.1247 5.78745 46.023C5.71687 45.8376 5.60593 45.6874 5.45466 45.5725C5.30376 45.4586 5.11994 45.3919 4.90321 45.3724C4.68687 45.3539 4.44573 45.395 4.17979 45.4956C3.91386 45.5963 3.70612 45.7251 3.55656 45.882C3.40738 46.0399 3.31426 46.2114 3.27721 46.3965C3.24054 46.5826 3.25749 46.7683 3.32808 46.9537C3.36679 47.0553 3.41797 47.1477 3.48164 47.2308C3.5453 47.3139 3.61924 47.3834 3.70345 47.4394C3.78903 47.4959 3.88256 47.5358 3.98403 47.559C4.08688 47.5828 4.19547 47.5856 4.30979 47.5674L4.45096 47.9382C4.28338 47.9696 4.12356 47.972 3.97151 47.9451C3.81946 47.9183 3.67907 47.8665 3.55035 47.7898C3.42263 47.7127 3.31028 47.6144 3.2133 47.4949C3.1167 47.3763 3.03899 47.2398 2.98017 47.0853C2.88074 46.8242 2.8563 46.5678 2.90686 46.316C2.95741 46.0643 3.07845 45.8354 3.26999 45.6295C3.46153 45.4236 3.71926 45.2594 4.04318 45.1368C4.36709 45.0143 4.66922 44.9666 4.94956 44.994C5.2299 45.0213 5.47277 45.1124 5.67815 45.2673C5.88353 45.4222 6.03594 45.6302 6.13536 45.8913C6.19418 46.0458 6.22691 46.1993 6.23353 46.3519C6.24053 46.5055 6.22141 46.6536 6.17618 46.7961C6.13195 46.9383 6.06189 47.0697 5.966 47.1904C5.87111 47.3107 5.75 47.4146 5.60267 47.5023Z" fill="#004659"/>
<path d="M4.24171 49.8911L7.14266 48.3544L7.66348 49.3316C7.78391 49.5576 7.84404 49.7636 7.84387 49.9496C7.84465 50.1351 7.79656 50.2982 7.6996 50.4388C7.60263 50.5795 7.46869 50.6952 7.29777 50.7857C7.12685 50.8762 6.95672 50.9217 6.78738 50.9221C6.61805 50.9224 6.45722 50.8706 6.30491 50.7666C6.15354 50.6621 6.01814 50.4978 5.89873 50.2737L5.47725 49.4829L5.79454 49.3148L6.21 50.0943C6.29228 50.2487 6.38118 50.361 6.47668 50.4311C6.57269 50.5022 6.67353 50.5369 6.77921 50.5353C6.88633 50.534 6.99797 50.5027 7.11412 50.4411C7.23028 50.3796 7.32025 50.3042 7.38405 50.2149C7.44784 50.1255 7.47801 50.0208 7.47455 49.9007C7.47203 49.7801 7.42913 49.6417 7.34584 49.4854L7.01769 48.8697L4.42836 50.2413L4.24171 49.8911ZM6.27041 50.5621L5.34657 51.9642L5.12982 51.5575L6.05967 50.1667L6.27041 50.5621Z" fill="#004659"/>
<path d="M6.30382 53.4952L6.06538 53.1541L9.45017 52.2682L9.68495 52.6041L7.67946 55.4632L7.44101 55.122L9.14852 52.7429L9.13384 52.7219L6.30382 53.4952ZM7.44465 52.8897L8.40576 54.2647L8.11625 54.4658L7.15513 53.0909L7.44465 52.8897Z" fill="#004659"/>
<path d="M8.76102 56.7913L11.2257 54.6261L12.5279 56.0994L12.2632 56.332L11.2239 55.1562L10.3911 55.8878L11.3328 56.9532L11.0681 57.1858L10.1264 56.1204L9.02402 57.0888L8.76102 56.7913Z" fill="#004659"/>
<path d="M13.1288 57.2114L13.3658 56.9507L15.1915 58.6L14.9545 58.8607L14.189 58.1692L12.2201 60.3353L11.9254 60.069L13.8943 57.9029L13.1288 57.2114Z" fill="#004659"/>
<path d="M14.0334 61.8701C13.9711 61.8215 13.9351 61.7575 13.9254 61.6782C13.9157 61.5989 13.9352 61.5282 13.984 61.466C14.0327 61.4039 14.0969 61.368 14.1765 61.3583C14.256 61.3487 14.327 61.3681 14.3893 61.4167C14.4516 61.4654 14.4876 61.5293 14.4973 61.6086C14.507 61.688 14.4875 61.7587 14.4387 61.8208C14.4064 61.862 14.3663 61.8915 14.3182 61.9095C14.271 61.9282 14.2218 61.9345 14.1708 61.9286C14.1213 61.9225 14.0755 61.903 14.0334 61.8701Z" fill="#004659"/>
<path d="M20.4938 63.2974L20.1476 63.1021C20.1835 62.9913 20.1971 62.8839 20.1886 62.7798C20.1809 62.6763 20.1553 62.5786 20.1117 62.4866C20.0695 62.3942 20.012 62.3104 19.9393 62.2351C19.8665 62.1598 19.7827 62.0953 19.6877 62.0418C19.5146 61.9442 19.333 61.8993 19.143 61.9073C18.9539 61.9158 18.7698 61.9816 18.5906 62.1047C18.4123 62.2283 18.2532 62.4135 18.1131 62.6604C17.9731 62.9072 17.8958 63.1386 17.8814 63.3546C17.8679 63.5711 17.9062 63.7624 17.9963 63.9283C18.0874 64.0948 18.2195 64.2268 18.3926 64.3245C18.4875 64.378 18.5861 64.4165 18.6884 64.4398C18.7906 64.4632 18.892 64.4695 18.9926 64.4589C19.0947 64.4479 19.1922 64.419 19.2851 64.3722C19.3795 64.3249 19.4648 64.2579 19.5411 64.1711L19.8873 64.3664C19.7786 64.4973 19.6572 64.6009 19.523 64.6772C19.3889 64.7534 19.2477 64.803 19.0995 64.826C18.9518 64.8481 18.8024 64.844 18.6512 64.8139C18.5009 64.7842 18.3536 64.7287 18.2094 64.6474C17.9655 64.5099 17.7823 64.3282 17.6599 64.1023C17.5374 63.8765 17.4838 63.6234 17.4992 63.343C17.5145 63.0626 17.6075 62.7721 17.7781 62.4714C17.9486 62.1708 18.1505 61.9417 18.3836 61.7841C18.6168 61.6265 18.862 61.5419 19.1193 61.5302C19.3765 61.5185 19.6271 61.5814 19.871 61.7189C20.0152 61.8002 20.1388 61.8975 20.2417 62.0106C20.3455 62.1243 20.4257 62.2504 20.4823 62.3888C20.5394 62.5264 20.5698 62.6721 20.5733 62.826C20.5775 62.9789 20.551 63.1361 20.4938 63.2974Z" fill="#004659"/>
<path d="M20.9267 65.9786L20.5412 65.8198L22.9103 63.252L23.2898 63.4083L23.1504 66.8943L22.765 66.7356L22.9135 63.8139L22.8897 63.8042L20.9267 65.9786ZM21.5589 64.8548L23.1126 65.4946L22.9778 65.8198L21.4242 65.1799L21.5589 64.8548Z" fill="#004659"/>
<path d="M24.7998 67.4388L25.6802 64.2836L26.7496 64.5802C26.9979 64.649 27.1884 64.75 27.3211 64.8831C27.4551 65.0154 27.5391 65.1676 27.5732 65.3398C27.6073 65.5119 27.5985 65.6909 27.5466 65.8768C27.4947 66.0627 27.4095 66.2211 27.2908 66.3519C27.1732 66.4831 27.0229 66.572 26.8401 66.6187C26.6575 66.6643 26.4431 66.653 26.1969 66.5847L25.4304 66.3721L25.525 66.0332L26.2791 66.2423C26.4491 66.2895 26.5938 66.2981 26.7132 66.2681C26.8325 66.2381 26.9293 66.1797 27.0034 66.093C27.0789 66.0055 27.1343 65.8985 27.1695 65.7722C27.2048 65.6459 27.2126 65.5263 27.193 65.4136C27.1745 65.3011 27.121 65.2022 27.0327 65.1168C26.9447 65.0304 26.8147 64.9634 26.6427 64.9157L25.9689 64.7288L25.183 67.5451L24.7998 67.4388Z" fill="#004659"/>
<path d="M28.7989 65.4495L28.8557 65.1023L31.2873 65.4975L31.2305 65.8447L30.211 65.679L29.7392 68.5641L29.3466 68.5003L29.8184 65.6152L28.7989 65.4495Z" fill="#004659"/>
<path d="M34.6543 65.7081L35.0517 65.7259L34.9543 67.8921C34.9442 68.1157 34.8823 68.3131 34.7687 68.4841C34.6561 68.654 34.502 68.7854 34.3062 68.878C34.1105 68.9695 33.8839 69.0096 33.6265 68.9981C33.369 68.9866 33.1469 68.9265 32.9602 68.8178C32.7735 68.7081 32.6312 68.5636 32.5333 68.3842C32.4365 68.2038 32.3932 68.0017 32.4032 67.7781L32.5006 65.6119L32.898 65.6296L32.8021 67.7639C32.7949 67.9236 32.8237 68.0674 32.8886 68.1952C32.9536 68.3219 33.0496 68.4238 33.1767 68.501C33.305 68.5771 33.4604 68.6193 33.6431 68.6275C33.8258 68.6356 33.9844 68.6075 34.119 68.5431C34.2536 68.4776 34.3584 68.3846 34.4334 68.2642C34.5095 68.1427 34.5511 68.0021 34.5583 67.8424L34.6543 65.7081Z" fill="#004659"/>
<path d="M36.6066 68.9468L36.3518 65.6817L37.4584 65.5959C37.7143 65.576 37.9277 65.6033 38.0987 65.6777C38.2696 65.7511 38.4004 65.8602 38.4911 66.005C38.5817 66.1498 38.6346 66.3184 38.6496 66.5107C38.6646 66.7031 38.6385 66.8768 38.5712 67.0317C38.5039 67.1866 38.392 67.3129 38.2355 67.4106C38.079 67.5072 37.8738 67.5654 37.6201 67.585L36.7245 67.6545L36.6967 67.2974L37.5794 67.2289C37.7543 67.2153 37.893 67.1789 37.9956 67.1196C38.0993 67.0603 38.1715 66.982 38.2122 66.8847C38.2539 66.7863 38.2696 66.6717 38.2594 66.541C38.2492 66.4103 38.2157 66.2979 38.1591 66.2039C38.1024 66.11 38.0181 66.0406 37.9063 65.9958C37.7944 65.9499 37.65 65.9339 37.473 65.9476L36.7757 66.0017L37.0032 68.916L36.6066 68.9468ZM38.0337 67.3605L38.9542 68.7647L38.4936 68.8004L37.586 67.3952L38.0337 67.3605Z" fill="#004659"/>
<path d="M40.7119 68.503L40.0767 65.2898L42.0219 64.9077L42.0901 65.2528L40.5352 65.5583L40.7499 66.644L42.204 66.3583L42.2722 66.7035L40.8181 66.9892L41.0339 68.0811L42.614 67.7707L42.6822 68.1159L40.7119 68.503Z" fill="#004659"/>
<path d="M44.6066 67.6241C44.5305 67.6458 44.4574 67.6373 44.3873 67.5986C44.3172 67.5598 44.2713 67.5025 44.2495 67.4267C44.2277 67.3508 44.2362 67.278 44.2751 67.2081C44.3139 67.1382 44.3714 67.0924 44.4475 67.0707C44.5235 67.0489 44.5966 67.0574 44.6667 67.0962C44.7368 67.1349 44.7828 67.1922 44.8046 67.268C44.819 67.3183 44.8194 67.368 44.8058 67.4174C44.7932 67.4665 44.7695 67.5098 44.7347 67.5475C44.7007 67.5839 44.658 67.6094 44.6066 67.6241Z" fill="#004659"/>
<path d="M49.5595 63.2484L49.1977 63.4132C49.1288 63.3192 49.0495 63.2451 48.9601 63.1909C48.8715 63.1362 48.7771 63.0995 48.6768 63.0807C48.5771 63.0605 48.4752 63.0577 48.3714 63.0722C48.2675 63.0866 48.1659 63.1165 48.0667 63.1617C47.8858 63.244 47.7428 63.3642 47.6377 63.5223C47.5335 63.6799 47.4788 63.8671 47.4736 64.084C47.4693 64.3004 47.5262 64.5376 47.6444 64.7955C47.7626 65.0535 47.9051 65.2517 48.072 65.3902C48.2399 65.5282 48.4176 65.6096 48.6053 65.6343C48.7939 65.6586 48.9787 65.6295 49.1596 65.5472C49.2589 65.502 49.348 65.445 49.427 65.3762C49.5059 65.3074 49.5707 65.2293 49.6211 65.1419C49.6721 65.053 49.7059 64.9574 49.7224 64.8549C49.7395 64.751 49.7352 64.6428 49.7095 64.5303L50.0713 64.3655C50.1138 64.5302 50.1267 64.689 50.1098 64.842C50.0929 64.995 50.0503 65.1381 49.9819 65.2712C49.9131 65.4033 49.8221 65.5215 49.7088 65.6258C49.5965 65.7297 49.465 65.816 49.3142 65.8846C49.0594 66.0007 48.8043 66.0418 48.549 66.008C48.2937 65.9743 48.0568 65.8689 47.8381 65.6918C47.6195 65.5148 47.4382 65.2692 47.2942 64.955C47.1503 64.6408 47.0828 64.3434 47.0917 64.0627C47.1007 63.782 47.176 63.5344 47.3175 63.32C47.4591 63.1055 47.6573 62.9402 47.9121 62.8242C48.0629 62.7555 48.2144 62.7129 48.3667 62.6963C48.5199 62.6793 48.6694 62.6886 48.815 62.7242C48.9602 62.7589 49.0964 62.82 49.2234 62.9074C49.3501 62.9939 49.4621 63.1076 49.5595 63.2484Z" fill="#004659"/>
<path d="M53.5306 61.5891C53.7149 61.8816 53.8212 62.1675 53.8495 62.4469C53.8778 62.7263 53.836 62.9816 53.7241 63.2129C53.6122 63.4441 53.4376 63.634 53.2004 63.7826C52.9631 63.9311 52.7157 64.0055 52.4582 64.0056C52.2007 64.0058 51.9518 63.9325 51.7116 63.7858C51.4714 63.6391 51.2592 63.4195 51.0749 63.127C50.8906 62.8345 50.7843 62.5486 50.756 62.2692C50.7277 61.9898 50.7695 61.7345 50.8814 61.5032C50.9933 61.272 51.1679 61.0821 51.4052 60.9335C51.6424 60.7849 51.8898 60.7106 52.1473 60.7105C52.4049 60.7103 52.6537 60.7836 52.8939 60.9303C53.1341 61.077 53.3463 61.2966 53.5306 61.5891ZM53.2046 61.7932C53.0533 61.5531 52.8854 61.3757 52.7007 61.2609C52.5169 61.1456 52.3299 61.0884 52.1397 61.0892C51.9504 61.0894 51.7715 61.1422 51.6031 61.2477C51.4347 61.3532 51.3088 61.4911 51.2256 61.6616C51.1432 61.8315 51.1138 62.0243 51.1373 62.24C51.1617 62.4551 51.2496 62.6827 51.4009 62.9229C51.5522 63.163 51.7197 63.3407 51.9035 63.456C52.0882 63.5707 52.2752 63.628 52.4645 63.6278C52.6547 63.627 52.834 63.5739 53.0024 63.4684C53.1708 63.3629 53.2962 63.2252 53.3786 63.0553C53.4618 62.8848 53.4913 62.692 53.4669 62.4769C53.4434 62.2613 53.356 62.0334 53.2046 61.7932Z" fill="#004659"/>
<path d="M55.8275 57.6843L57.9217 60.2075L57.6251 60.4522L54.6016 59.6087L54.5769 59.6291L56.2212 61.6102L55.9147 61.8631L53.8205 59.3398L54.1171 59.0951L57.1496 59.9395L57.1743 59.9191L55.526 57.933L55.8275 57.6843Z" fill="#004659"/>
<path d="M58.5867 54.8448L60.9867 57.0809L60.7239 57.3613L57.6172 56.9095L57.5953 56.9328L59.4797 58.6886L59.2081 58.9783L56.808 56.7422L57.0709 56.4618L60.1866 56.9133L60.2085 56.89L58.3194 55.1299L58.5867 54.8448Z" fill="#004659"/>
<path d="M62.0893 55.7042L59.4358 53.7736L60.6045 52.177L60.8896 52.3844L59.9553 53.6606L60.8519 54.313L61.7256 53.1195L62.0107 53.3269L61.1369 54.5204L62.0387 55.1765L62.9881 53.8796L63.2731 54.087L62.0893 55.7042Z" fill="#004659"/>
<path d="M63.5778 49.1703L63.3834 49.5163C63.2721 49.481 63.1643 49.4679 63.06 49.4768C62.9562 49.4849 62.8583 49.5108 62.7662 49.5547C62.6737 49.5972 62.5899 49.6548 62.5146 49.7277C62.4394 49.8005 62.3751 49.8844 62.3218 49.9793C62.2246 50.1523 62.1805 50.3335 62.1893 50.5229C62.1986 50.7114 62.2654 50.8947 62.3896 51.0728C62.5144 51.25 62.7009 51.4079 62.949 51.5464C63.1972 51.685 63.4297 51.761 63.6464 51.7744C63.8636 51.787 64.0553 51.748 64.2214 51.6574C64.388 51.5659 64.5199 51.4337 64.617 51.2607C64.6703 51.1658 64.7085 51.0673 64.7315 50.9653C64.7544 50.8633 64.7604 50.7621 64.7493 50.6619C64.7378 50.5602 64.7084 50.4631 64.661 50.3707C64.6133 50.2768 64.5457 50.192 64.4583 50.1163L64.6526 49.7703C64.7845 49.8781 64.8889 49.9988 64.966 50.1322C65.043 50.2656 65.0934 50.4061 65.117 50.5538C65.1398 50.7009 65.1364 50.8499 65.1068 51.0007C65.0777 51.1507 65.0227 51.2977 64.9417 51.4419C64.8048 51.6856 64.6234 51.869 64.3974 51.9921C64.1714 52.1152 63.9177 52.1697 63.6364 52.1556C63.355 52.1415 63.0632 52.05 62.7609 51.8813C62.4586 51.7125 62.228 51.5122 62.0689 51.2805C61.9098 51.0487 61.8239 50.8046 61.8111 50.5482C61.7982 50.2918 61.8602 50.0417 61.9971 49.798C62.0781 49.6538 62.1751 49.5302 62.2882 49.4272C62.4017 49.3232 62.5278 49.2427 62.6665 49.1857C62.8042 49.1281 62.9502 49.0973 63.1046 49.093C63.258 49.0883 63.4158 49.114 63.5778 49.1703Z" fill="#004659"/>
<path d="M63.3698 48.0283L63.0444 47.892L63.9988 45.6275L64.3241 45.7638L63.924 46.7132L66.6272 47.8456L66.4731 48.2112L63.7699 47.0788L63.3698 48.0283Z" fill="#004659"/>
<path d="M67.4771 45.6335C67.4517 45.7082 67.4031 45.7633 67.3313 45.7987C67.2594 45.8342 67.186 45.8392 67.1111 45.8139C67.0361 45.7887 66.9809 45.7402 66.9453 45.6686C66.9098 45.597 66.9047 45.5238 66.9301 45.4491C66.9554 45.3743 67.004 45.3193 67.0759 45.2838C67.1477 45.2484 67.2211 45.2433 67.2961 45.2686C67.3457 45.2854 67.387 45.3133 67.42 45.3526C67.4533 45.3908 67.4756 45.4349 67.4869 45.4849C67.4975 45.5335 67.4942 45.583 67.4771 45.6335Z" fill="#004659"/>
</svg>
