<svg xmlns="http://www.w3.org/2000/svg" width="140" height="57" fill="none">
  <path fill="#FF6700" d="M29.616 35.899a3.86 3.86 0 0 1-3.86-3.85v-3.844h3.86a3.872 3.872 0 0 1 2.686 1.152 3.839 3.839 0 0 1 0 5.39 3.872 3.872 0 0 1-2.686 1.152Zm-16.548-3.85a3.86 3.86 0 0 1-3.86 3.85 3.878 3.878 0 0 1-2.734-1.129 3.845 3.845 0 0 1-1.133-2.722c0-2.117 1.734-3.843 3.866-3.843h3.861v3.843Zm16.548-8.333h-3.86v-8.783a54.004 54.004 0 0 0-4.514-.33v9.113h-3.667v-9.108c-1.506.043-3.01.15-4.507.319v8.79h-3.86c-4.616 0-8.374 3.735-8.374 8.331 0 4.597 3.758 8.339 8.373 8.339 4.616 0 8.368-3.742 8.368-8.339v-3.843h3.667v3.843c0 4.597 3.758 8.339 8.374 8.339 4.616 0 8.374-3.742 8.374-8.339 0-4.596-3.758-8.332-8.374-8.332Zm9.153-13.38-1.39 4.266-.217-.066a57.677 57.677 0 0 0-11.407-2.473 54.004 54.004 0 0 0-4.513-.33 49.66 49.66 0 0 0-3.667.006c-1.506.043-3.01.15-4.507.318a58.086 58.086 0 0 0-11.654 2.545L0 10.338c12.609-4.146 25.937-4.17 38.558-.073l.211.072ZM19.394 49.79a61.976 61.976 0 0 1-19.17-3.055l-.215-.07 1.4-4.268.214.07c11.697 3.799 24.059 3.776 35.744-.068l1.415 4.264a61.953 61.953 0 0 1-19.388 3.127ZM7.32 5.411l-.858-4.064a62.88 62.88 0 0 1 24.76-.227l-.784 4.079A58.692 58.692 0 0 0 7.32 5.41ZM19.417 57a63.074 63.074 0 0 1-11.815-1.12l.784-4.08a58.692 58.692 0 0 0 23.118-.211l.858 4.064A63.123 63.123 0 0 1 19.417 57Z"/>
  <path fill="#004659" d="M137.287 39.916v-2.865h.268l1.051 2.16h.082l1.044-2.16H140v2.865h-.224v-2.59l.053.007-1.007 2.071h-.35l-1.014-2.07.038-.008v2.59h-.209Zm-1.55 0v-2.805h.223v2.805h-.223Zm-.924-2.657v-.208h2.072v.208h-2.072ZM50.362 19.964l3.697-11.152h4.066l3.835 11.152h-2.608l-3.099-9.426.798.321h-1.98l.83-.32-3.023 9.425h-2.516Zm2.807-2.765.767-2.078h4.388l.783 2.078h-5.938ZM70.276 19.964V8.812h2.516v11.152h-2.516Zm-7.241 0V8.812h2.516v11.152h-2.516Zm2.071-4.506v-2.2h5.615v2.2h-5.615ZM73.866 19.964l3.698-11.152h4.065l3.836 11.152h-2.608l-3.1-9.426.798.321h-1.979l.829-.32-3.023 9.425h-2.516Zm2.808-2.765.767-2.078h4.388l.782 2.078h-5.937ZM88.749 20.023v-2.337h2.086c.522 0 .998-.077 1.412-.23a2.933 2.933 0 0 0 1.749-1.726c.157-.441.235-.907.23-1.375a3.927 3.927 0 0 0-.23-1.39 2.78 2.78 0 0 0-1.75-1.68 4.096 4.096 0 0 0-1.41-.23h-2.087V8.718h1.948c1.013 0 1.903.153 2.654.443.768.306 1.381.703 1.903 1.207.503.496.89 1.096 1.135 1.757a5.6 5.6 0 0 1 .384 2.062v.336a5.518 5.518 0 0 1-1.52 3.774c-.542.54-1.19.966-1.902 1.252a6.853 6.853 0 0 1-2.654.474H88.75Zm-2.21 0V8.718h2.517v11.305H86.54ZM102.834 20.252a5.699 5.699 0 0 1-2.685-.58 3.98 3.98 0 0 1-1.657-1.681 5.465 5.465 0 0 1-.568-2.567V8.81h2.517v6.707c0 .489.092.916.276 1.283.185.348.467.634.813.825.403.204.852.304 1.304.29.522 0 .951-.091 1.304-.29.353-.199.629-.458.813-.825.194-.4.288-.84.276-1.283V8.809h2.516v6.615a5.462 5.462 0 0 1-.567 2.567 3.981 3.981 0 0 1-1.657 1.68 5.652 5.652 0 0 1-2.685.58ZM56.73 34.261c-.9.02-1.793-.146-2.624-.489a5.337 5.337 0 0 1-2.93-3.208 6.24 6.24 0 0 1-.353-2.047v-.336a6.201 6.201 0 0 1 1.411-3.896 5.139 5.139 0 0 1 1.78-1.313c.721-.321 1.534-.49 2.47-.49a6.082 6.082 0 0 1 2.685.566 4.72 4.72 0 0 1 1.872 1.543c.477.67.758 1.457.813 2.276h-2.516a2.059 2.059 0 0 0-.491-1.07 2.593 2.593 0 0 0-.998-.717 3.388 3.388 0 0 0-1.365-.26 2.893 2.893 0 0 0-1.833.551c-.53.386-.912.941-1.082 1.573a4.78 4.78 0 0 0-.2 1.42c0 .535.077 1.04.215 1.482.144.421.368.81.66 1.146.294.32.655.57 1.059.733.454.178.939.266 1.427.26.69 0 1.304-.153 1.81-.428a2.556 2.556 0 0 0 1.105-1.13l-.307 1.71V29.48h2.316v2.383a4.78 4.78 0 0 1-1.994 1.787 6.622 6.622 0 0 1-2.93.611Zm-.323-4.293v-1.802h6.168v1.802h-6.168ZM63.818 33.973V22.821h2.516v11.152h-2.516Zm2.209 0v-2.2h4.695v2.2h-4.695ZM77.134 34.263a5.603 5.603 0 0 1-3.451-.948 5.564 5.564 0 0 1-2.164-2.84 5.862 5.862 0 0 1-.353-1.94v-.337a5.944 5.944 0 0 1 1.504-3.895 5.43 5.43 0 0 1 1.871-1.314 6.269 6.269 0 0 1 2.593-.504c.982 0 1.841.168 2.593.504a5.403 5.403 0 0 1 3.007 3.162 5.72 5.72 0 0 1 .384 2.047v.336a6.172 6.172 0 0 1-1.473 3.82 5.55 5.55 0 0 1-1.872 1.39c-.83.363-1.732.54-2.639.52Zm0-2.337c.49.008.976-.086 1.427-.275a3.223 3.223 0 0 0 1.78-1.895c.153-.427.23-.886.23-1.375a3.956 3.956 0 0 0-.246-1.42 3.052 3.052 0 0 0-.69-1.13 2.961 2.961 0 0 0-1.074-.75 3.696 3.696 0 0 0-1.427-.259 3.696 3.696 0 0 0-1.427.26 3.1 3.1 0 0 0-1.764 1.879 4.185 4.185 0 0 0 0 2.796c.147.417.377.801.675 1.13a3.283 3.283 0 0 0 2.516 1.039ZM86.785 34.047V32.09h2.623c.46 0 .829-.122 1.059-.367.25-.286.378-.66.353-1.038 0-.459-.123-.795-.353-1.024-.23-.244-.583-.367-1.059-.367h-2.623v-1.512h2.5c.702-.011 1.4.087 2.072.29a2.901 2.901 0 0 1 1.427.902c.369.486.554 1.086.521 1.695v.214c0 .657-.153 1.222-.46 1.711-.33.489-.801.867-1.35 1.085a5.821 5.821 0 0 1-2.21.367h-2.5Zm-2.148 0v-11.32h2.454v11.32h-2.454Zm2.148-5.149v-1.497h2.209c.476 0 .828-.122 1.043-.367.225-.275.34-.623.322-.977 0-.428-.107-.764-.322-1.009-.215-.244-.567-.366-1.043-.366h-2.21v-1.956h2.056a4.694 4.694 0 0 1 2.962.81 2.75 2.75 0 0 1 1.043 2.307v.229c.03.602-.16 1.194-.537 1.665a2.901 2.901 0 0 1-1.427.902 7.303 7.303 0 0 1-2.04.26h-2.056ZM93.612 33.973l3.697-11.152h4.066l3.835 11.152h-2.608l-3.099-9.426.798.321h-1.98l.83-.32-3.023 9.425h-2.516Zm2.807-2.765.767-2.078h4.388l.783 2.078h-5.938ZM106.284 33.973V22.821h2.516v11.152h-2.516Zm2.209 0v-2.2h4.695v2.2h-4.695ZM51.42 47.982V36.83h4.128l4.219 9.12h.521l-.306.275V36.83h2.362v11.152h-4.157l-4.22-9.12h-.521l.307-.275v9.395H51.42ZM64.477 47.982V36.83h2.455v11.152h-2.455Zm2.148 0v-2.078h4.894v2.078h-4.894Zm0-4.629v-2.078h4.542v2.078h-4.542Zm0-4.446V36.83h4.787v2.077h-4.787ZM75.431 47.982v-9.273h2.516v9.273h-2.516Zm-3.145-8.968V36.83h8.822v2.184h-8.822ZM84.315 47.982 81.553 36.83h2.593l2.163 9.471-.537-.35h1.396l-.598.35 1.672-9.059h2.087l-2.194 10.74h-3.82Zm6.674 0-2.363-10.74h2.194l1.933 9.06-.583-.352h1.335l-.507.351 1.887-9.471h2.455l-2.455 11.152h-3.897ZM103.707 48.273a5.604 5.604 0 0 1-3.452-.948 5.565 5.565 0 0 1-2.163-2.84 5.859 5.859 0 0 1-.353-1.94v-.337a5.943 5.943 0 0 1 1.503-3.896A5.427 5.427 0 0 1 101.114 37a6.265 6.265 0 0 1 2.593-.505c.982 0 1.841.169 2.593.505a5.432 5.432 0 0 1 3.007 3.162c.252.653.382 1.347.383 2.047v.336a6.172 6.172 0 0 1-1.473 3.82 5.539 5.539 0 0 1-1.871 1.39 6.223 6.223 0 0 1-2.639.519Zm0-2.337c.489.008.975-.086 1.427-.275a3.22 3.22 0 0 0 1.779-1.895c.154-.427.23-.886.23-1.375a3.958 3.958 0 0 0-.245-1.42 3.05 3.05 0 0 0-.69-1.13 2.973 2.973 0 0 0-1.074-.75 3.699 3.699 0 0 0-1.427-.26 3.699 3.699 0 0 0-1.427.26 3.099 3.099 0 0 0-1.764 1.88 4.178 4.178 0 0 0 0 2.795c.147.418.376.802.675 1.13a3.293 3.293 0 0 0 2.516 1.039ZM111.209 47.982V36.738h2.517v11.244h-2.517Zm6.797 0-3.283-4.797h2.761l3.437 4.797h-2.915Zm-4.955-3.575v-1.97h2.761c.368 0 .691-.077.951-.215.277-.152.491-.366.629-.626a1.92 1.92 0 0 0 .231-.947 1.83 1.83 0 0 0-.231-.932 1.437 1.437 0 0 0-.629-.626 1.877 1.877 0 0 0-.951-.23h-2.761v-2.123h2.562c.92 0 1.733.153 2.424.428.642.24 1.194.673 1.58 1.237.388.622.581 1.346.552 2.078v.244c.028.73-.17 1.45-.567 2.063a3.376 3.376 0 0 1-1.581 1.222 6.59 6.59 0 0 1-2.408.397h-2.562ZM129.389 47.982l-3.866-5.21h-1.549l4.694-5.942h2.885l-4.219 5.331-.031-1.084 5.124 6.905h-3.038Zm-7.364 0V36.83h2.516v11.152h-2.516Z"/>
</svg>
