<svg width="22" height="18" viewBox="0 0 22 18" fill="none" xmlns="http://www.w3.org/2000/svg">
<path d="M19.7101 0.154509C19.7101 0.154509 21.6526 -0.602992 21.4901 1.23651C21.4366 1.99401 20.9511 4.64551 20.5731 7.51301L19.2781 16.008C19.2781 16.008 19.1701 17.2525 18.1986 17.469C17.2276 17.685 15.7706 16.7115 15.5006 16.495C15.2846 16.3325 11.4536 13.8975 10.1046 12.7075C9.72665 12.3825 9.29465 11.7335 10.1586 10.976L15.8246 5.56501C16.4721 4.91501 17.1196 3.40001 14.4216 5.24001L6.86665 10.38C6.86665 10.38 6.00315 10.9215 4.38465 10.4345L0.876647 9.35201C0.876647 9.35201 -0.418353 8.54051 1.79415 7.72901C7.19065 5.18601 13.8281 2.58901 19.7096 0.154009" fill="#031822"/>
</svg>
