<svg width="59" height="59" viewBox="0 0 59 59" fill="none" xmlns="http://www.w3.org/2000/svg">
<path d="M56.1176 16.735C55.8554 16.1887 55.1998 15.9592 54.6644 16.2214C54.1181 16.4837 53.8886 17.1393 54.1509 17.6747C59.1334 28.0884 56.9918 40.589 48.8187 48.762C43.6505 53.9305 36.7992 56.7714 29.5006 56.7714C22.2021 56.7714 15.351 53.9304 10.1937 48.762C5.0255 43.6045 2.18468 36.7419 2.18468 29.4542C2.18468 22.1665 5.02557 15.2928 10.1937 10.1352C18.3671 1.96146 30.8559 -0.179887 41.2796 4.81375C42.3067 5.29454 43.2901 5.87365 44.2407 6.48557L42.121 8.60538C41.9134 8.81299 41.8041 9.08617 41.8041 9.38121V13.6755C40.8208 12.9106 39.7718 12.2222 38.6682 11.6649C30.8997 7.66562 21.5242 9.12987 15.3403 15.3036C7.52778 23.1165 7.52778 35.8248 15.3403 43.6377C19.2411 47.5386 24.3767 49.4946 29.5011 49.4946C34.6256 49.4946 39.7612 47.5386 43.6619 43.6377C49.8463 37.4529 51.3108 28.0776 47.3004 20.3087C47.0272 19.7733 46.3717 19.5657 45.8253 19.8389C45.2899 20.112 45.0823 20.7786 45.3554 21.314C48.9175 28.2417 47.6173 36.5902 42.1103 42.0974C35.1501 49.0579 23.83 49.0579 16.8699 42.0974C9.90974 35.1369 9.90967 23.8162 16.8699 16.8558C22.3768 11.3486 30.7243 10.0482 37.6523 13.6105C38.9635 14.277 40.1872 15.1184 41.3018 16.1128L36.1226 21.2921C34.9645 20.3524 33.6314 19.664 32.2109 19.2925C28.5833 18.3091 24.6718 19.3471 22.0165 22.0133C17.8973 26.1328 17.8973 32.8312 22.0165 36.9503C24.0707 39.0046 26.7805 40.0427 29.4794 40.0427C32.1784 40.0427 34.8881 39.0155 36.9423 36.9503C39.6084 34.295 40.6465 30.3832 39.663 26.7555C39.5101 26.1763 38.9091 25.8267 38.3191 25.9905C37.7399 26.1435 37.3903 26.7445 37.5542 27.3346C38.33 30.2084 37.5105 33.3117 35.4017 35.4202C32.1346 38.6874 26.8241 38.6874 23.557 35.4202C20.2898 32.153 20.2899 26.8422 23.557 23.575C25.6658 21.4661 28.758 20.6356 31.6534 21.4224C32.7133 21.6955 33.7076 22.1873 34.5817 22.8538L28.7142 28.7216C28.2881 29.1478 28.2881 29.8362 28.7142 30.2623C28.9327 30.4809 29.2059 30.5792 29.49 30.5792C29.7741 30.5792 30.0473 30.4699 30.2658 30.2623L43.3343 17.1932H49.5733C49.8684 17.1932 50.1415 17.073 50.3491 16.8764L57.0471 10.1781C57.3639 9.86122 57.4514 9.39135 57.2875 8.98707C57.1236 8.58279 56.7193 8.30959 56.2822 8.30959H50.6769V2.70405C50.6769 2.26696 50.4147 1.86268 49.9995 1.69876C49.5952 1.53485 49.1254 1.62227 48.8085 1.93915L45.8037 4.9441C44.6564 4.17918 43.4545 3.46894 42.2089 2.87891C30.9544 -2.5081 17.4601 -0.191565 8.64262 8.62657C3.07006 14.1994 0 21.6075 0 29.4974C0 37.3872 3.07034 44.784 8.64262 50.357C14.2149 55.9299 21.623 59 29.5013 59C37.3795 59 44.7872 55.9295 50.3711 50.357C59.1997 41.5279 61.5053 28.033 56.1185 16.7891L56.1176 16.735ZM49.5945 10.4519H53.6483L49.1356 14.9648H43.9892V9.81814L48.5019 5.30529V9.35924C48.5019 9.96023 48.9935 10.4519 49.5945 10.4519Z" fill="url(#paint0_linear_370_110)"/>
<defs>
<linearGradient id="paint0_linear_370_110" x1="29.5" y1="0" x2="29.5" y2="59" gradientUnits="userSpaceOnUse">
<stop stop-color="#F9D6D6"/>
<stop offset="1" stop-color="#C8EAFB"/>
</linearGradient>
</defs>
</svg>
