<svg width="44" height="44" viewBox="0 0 44 44" fill="none" xmlns="http://www.w3.org/2000/svg">
<rect width="44" height="44" rx="22" fill="url(#paint0_linear_222_473)"/>
<path d="M20.7983 24.7624C20.8645 24.8332 20.9581 24.8766 21.0563 24.8766C21.0586 24.8766 21.0609 24.8766 21.0632 24.8766C21.1591 24.8766 21.2504 24.8401 21.3189 24.7716L25.9818 20.1886C26.0503 20.1201 26.0891 20.0288 26.0914 19.9306C26.0914 19.8347 26.0548 19.7411 25.9863 19.6703L24.4381 18.0947C24.2966 17.9508 24.0659 17.9485 23.9198 18.0901L21.1317 20.8303L20.1407 19.7799C20.0744 19.7091 19.9831 19.668 19.8849 19.6657C19.7799 19.6589 19.6931 19.6977 19.6223 19.7639L18.0147 21.2779C17.8686 21.4171 17.8617 21.6478 17.9988 21.7939L20.7983 24.7624ZM19.8644 20.5494L20.8599 21.6067C20.9262 21.6775 21.0198 21.7208 21.118 21.7208C21.2185 21.7186 21.3121 21.6843 21.3806 21.6158L24.1755 18.8711L25.2122 19.9238L21.0769 23.9883L18.7888 21.5633L19.8644 20.5494Z" fill="black"/>
<path d="M31.7985 12.7426L22.0801 10.5916C22.0276 10.5802 21.9728 10.5802 21.9225 10.5916L12.2018 12.7426C12.0351 12.7791 11.9141 12.9276 11.9141 13.0988V19.8488C11.9141 28.3798 21.4316 33.1774 21.8358 33.3784C21.8883 33.4035 21.9454 33.4172 22.0002 33.4172C22.055 33.4172 22.1121 33.4035 22.1623 33.3784C22.5665 33.1774 32.084 28.3798 32.084 19.8488V13.1011C32.084 12.9298 31.9652 12.7814 31.7985 12.7426ZM31.3533 19.8511C31.3533 27.3363 23.2561 31.9672 22.0002 32.6385C20.7443 31.9649 12.6471 27.334 12.6471 19.8511V13.3934L22.0002 11.3223L31.3533 13.3934V19.8511Z" fill="black"/>
<path d="M14.9674 14.962C14.8007 14.9986 14.6797 15.147 14.6797 15.3182V19.8487C14.6797 25.0664 19.6577 28.7999 21.7996 30.1631C21.8589 30.2019 21.9274 30.2202 21.9959 30.2202C22.0644 30.2202 22.1329 30.2019 22.1923 30.1631C24.3365 28.7907 29.3213 25.0367 29.3213 19.8509V15.3182C29.3213 15.147 29.2026 14.9986 29.0336 14.962L22.0781 13.4207C22.0256 13.4093 21.9708 13.4093 21.9206 13.4207L14.9674 14.962ZM28.5906 15.6128V19.8509C28.5906 24.5275 24.131 28.0189 21.9959 29.421C19.8655 28.0303 15.4127 24.5572 15.4127 19.8509V15.6128L22.0005 14.1537L28.5906 15.6128Z" fill="black"/>
<defs>
<linearGradient id="paint0_linear_222_473" x1="0" y1="0" x2="47.2262" y2="41.8484" gradientUnits="userSpaceOnUse">
<stop stop-color="#D3DAE2"/>
<stop offset="1" stop-color="#F3D4D7"/>
</linearGradient>
</defs>
</svg>
