<svg width="44" height="44" viewBox="0 0 44 44" fill="none" xmlns="http://www.w3.org/2000/svg">
<rect width="44" height="44" rx="22" fill="url(#paint0_linear_222_464)"/>
<path d="M34.3517 25.9H31.1015V23.0831H31.0975C31.0853 22.7351 30.8036 22.4548 30.4515 22.4548C30.1007 22.4548 29.8177 22.7351 29.8055 23.0831H29.8014V25.9C29.8014 28.0452 28.0463 29.8003 25.9011 29.8003H18.1006C15.9555 29.8003 14.2003 28.0452 14.2003 25.9V18.0995C14.2003 17.421 14.3791 16.7737 14.6919 16.2184C14.6947 16.2157 14.6987 16.2157 14.7014 16.213C14.9547 15.9597 14.9547 15.548 14.7014 15.2935C14.4482 15.0402 14.0365 15.0402 13.7819 15.2935C13.7589 15.3165 13.7494 15.3449 13.7304 15.3693L13.7182 15.3652C13.6871 15.4113 13.6722 15.4546 13.6438 15.4993C13.6424 15.5034 13.6383 15.5061 13.637 15.5101C13.3824 15.9164 13.2185 16.2956 13.0831 16.798L9.65005 16.7994C9.29254 16.7994 9 17.0919 9 17.4494C9 17.8069 9.29252 18.0995 9.65005 18.0995H12.9003V25.9H9.65005C9.29254 25.9 9 26.1925 9 26.5501C9 26.9076 9.29252 27.2001 9.65005 27.2001H13.0844C13.5611 29.0202 14.9804 30.4395 16.8006 30.9163V34.3507C16.8006 34.7082 17.0931 35.0007 17.4507 35.0007C17.8082 35.0007 18.1007 34.7082 18.1007 34.3507V31.1004H25.9012V34.3507C25.9012 34.7082 26.1938 35.0007 26.5513 35.0007C26.9088 35.0007 27.2013 34.7082 27.2013 34.3507V30.9163C29.0215 30.4396 30.4407 29.0203 30.9175 27.2001H34.3519C34.7094 27.2001 35.0019 26.9076 35.0019 26.5501C35.0019 26.1925 34.7093 25.9 34.3517 25.9Z" fill="black"/>
<path d="M19.4004 21.9996C19.4004 23.4365 20.5637 24.5998 22.0006 24.5998C23.4374 24.5998 24.6008 23.4365 24.6008 21.9996C24.6008 20.5627 23.4374 19.3994 22.0006 19.3994C20.5637 19.3994 19.4004 20.5627 19.4004 21.9996ZM23.3007 21.9996C23.3007 22.716 22.717 23.2997 22.0006 23.2997C21.2842 23.2997 20.7005 22.716 20.7005 21.9996C20.7005 21.2832 21.2842 20.6995 22.0006 20.6995C22.717 20.6995 23.3007 21.2832 23.3007 21.9996Z" fill="black"/>
<path d="M16.2482 14.6653C16.8008 14.3728 17.4291 14.1995 18.1009 14.1995H25.9014C28.0465 14.1995 29.8017 15.9546 29.8017 18.0997V20.9166C29.8017 21.2755 30.0928 21.5666 30.4517 21.5666C30.8106 21.5666 31.1018 21.2755 31.1018 20.9166V18.0997H34.352C34.7095 18.0997 35.002 17.8072 35.002 17.4497C35.002 17.0922 34.7095 16.7996 34.352 16.7996H30.9176C30.4409 14.9795 29.0216 13.5602 27.2014 13.0835V9.64907C27.2014 9.29156 26.9089 8.99902 26.5514 8.99902C26.1938 8.99902 25.9013 9.29154 25.9013 9.64907V12.8993H18.1008V9.64907C18.1008 9.29156 17.8083 8.99902 17.4507 8.99902C17.0932 8.99902 16.8007 9.29154 16.8007 9.64907V13.0835C16.3335 13.2081 15.9394 13.3692 15.548 13.6021C15.5426 13.6035 15.5385 13.6076 15.5345 13.6089C15.4857 13.6387 15.4342 13.6563 15.3855 13.6888L15.3963 13.701C15.3747 13.7173 15.3489 13.7267 15.3286 13.7457C15.0754 13.9989 15.0754 14.4106 15.3286 14.6652C15.5832 14.9185 15.995 14.9186 16.2482 14.6653Z" fill="black"/>
<defs>
<linearGradient id="paint0_linear_222_464" x1="0" y1="0" x2="47.2262" y2="41.8484" gradientUnits="userSpaceOnUse">
<stop stop-color="#D3DAE2"/>
<stop offset="1" stop-color="#F3D4D7"/>
</linearGradient>
</defs>
</svg>
