<svg width="53" height="64" viewBox="0 0 53 64" fill="none" xmlns="http://www.w3.org/2000/svg">
<path d="M10.7182 20.4226C10.7196 20.4447 10.7216 20.4676 10.7244 20.4897C11.8078 29.0194 17.7072 36.5394 26.1205 40.1156C26.2419 40.167 26.371 40.1934 26.5 40.1934C26.629 40.1934 26.7581 40.1677 26.8795 40.1156C35.2928 36.5394 41.1922 29.0194 42.2756 20.4897C42.2784 20.4676 42.2804 20.4447 42.2818 20.4226L42.4599 17.6148C42.4612 17.5927 42.4619 17.5699 42.4619 17.547V7.21925C42.4619 6.79684 42.2135 6.41723 41.834 6.26097L26.8713 0.0738515C26.6332 -0.0246172 26.3682 -0.0246172 26.1301 0.0738515L11.166 6.26168C10.7872 6.41866 10.5381 6.79826 10.5381 7.21997V17.5478C10.5381 17.5706 10.5388 17.5927 10.5401 17.6155L10.7182 20.4226ZM12.5351 7.91852L26.5007 2.14383L40.4663 7.91852V17.5128L40.2924 20.2535C39.3076 27.9098 34.0404 34.6884 26.5007 38.0407C18.961 34.6884 13.6937 27.9098 12.709 20.2535L12.5351 17.5128V7.91852ZM52.2878 23.0242C51.7689 22.3948 51.0471 22.0138 50.2535 21.9496C48.6622 21.8204 47.2565 23.0442 47.0571 24.7345L45.924 34.3602C44.8523 34.261 43.7165 34.7284 42.9747 36.0092L40.4407 40.3846C40.2613 40.6479 39.4125 41.3165 39.0758 41.4664C38.9012 41.4714 38.7328 41.4742 38.57 41.4771C36.1264 41.522 34.6297 41.7382 32.291 45.6577L26.5007 55.3654L20.709 45.6584C18.3703 41.7389 16.8736 41.522 14.43 41.4778C14.2672 41.4749 14.0988 41.4721 13.9242 41.4671C13.5875 41.3172 12.7387 40.6494 12.5669 40.3975L10.0253 36.0099C9.28352 34.7291 8.14767 34.2617 7.076 34.3609L5.94291 24.7353C5.74348 23.0442 4.33575 21.8176 2.74652 21.9503C1.95364 22.0145 1.23114 22.3956 0.712205 23.0249C0.195345 23.6521 -0.0537686 24.4463 0.00971757 25.2626L1.64587 46.1665C1.77077 47.7648 3.3524 49.3546 3.88237 49.722L12.4944 55.6972C12.9705 56.2923 15.029 59.7337 16.0324 61.4106C16.5085 62.2054 16.8839 62.8341 17.0613 63.1145C17.4684 63.7631 17.9508 64 18.4593 64C19.0404 64 19.6552 63.691 20.2301 63.3321L26.5007 59.4219L32.7706 63.3321C33.3413 63.6882 33.9513 63.9957 34.5317 63.9957C35.0465 63.9957 35.5378 63.7531 35.956 63.0874C36.1161 62.8341 36.4922 62.2054 36.9676 61.4098C37.9703 59.733 40.0288 56.2916 40.5056 55.6965L49.1169 49.7213C49.6476 49.3539 51.2285 47.7641 51.3541 46.1658L52.9903 25.2619C53.0538 24.4456 52.8047 23.6507 52.2878 23.0242ZM19.1991 61.5647C18.952 61.7188 18.7768 61.8101 18.6581 61.8637C18.4794 61.5732 18.144 61.0124 17.732 60.3238C14.4797 54.8867 14.0402 54.2816 13.6889 54.0375L4.99683 48.006C4.63868 47.7577 3.68708 46.6253 3.63809 45.9988L2.00194 25.0949C1.98124 24.8295 2.06336 24.5697 2.2338 24.3635C2.40563 24.1552 2.6437 24.0289 2.90386 24.0074C2.92801 24.0053 2.95147 24.0046 2.97493 24.0046C3.46902 24.0046 3.89617 24.4213 3.96242 24.9836L5.16797 35.2307C4.16392 36.1612 3.65051 37.7217 4.52482 39.2408L8.78253 46.6417C9.02889 47.0691 9.50297 47.3702 10.6975 48.0595C11.0963 48.29 11.5939 48.5761 11.7698 48.7188C12.2046 49.0699 12.8318 48.9907 13.1714 48.5411C13.5109 48.0916 13.4336 47.443 12.9995 47.0919C12.7014 46.8515 12.2239 46.576 11.6705 46.2564C11.2847 46.0337 10.6561 45.6713 10.4497 45.5014L6.24033 38.1848C5.80766 37.4327 6.36592 36.8184 6.722 36.5986C7.01389 36.4188 7.75296 36.1048 8.3126 37.0702L10.8541 41.4578C11.2185 42.0864 12.865 43.4971 13.7669 43.5271C13.9849 43.5342 14.1933 43.5378 14.3942 43.5421C16.3284 43.5777 17.1289 43.5927 19.0086 46.743L25.3621 57.3912C25.3904 57.4426 25.4325 57.5553 25.4628 57.6573L19.1991 61.5647ZM49.364 45.9988C49.315 46.626 48.3634 47.7584 48.0046 48.0067L39.3125 54.0375C38.9612 54.2809 38.5217 54.8867 35.2694 60.3238C34.8664 60.9974 34.5365 61.5483 34.3433 61.8637C34.2246 61.8094 34.0493 61.7181 33.8023 61.5647L27.5372 57.6573C27.5675 57.556 27.6089 57.4447 27.6352 57.3969L33.9914 46.743C35.8711 43.5927 36.6716 43.5777 38.6058 43.5421C38.8066 43.5385 39.015 43.5342 39.2331 43.5271C40.1357 43.4971 41.7815 42.0864 42.1459 41.4578L44.6874 37.0702C45.247 36.1041 45.9861 36.4181 46.278 36.5986C46.6341 36.8184 47.193 37.4327 46.7604 38.1848L42.551 45.5007C42.3439 45.6706 41.7153 46.033 41.3302 46.2557C40.7768 46.5746 40.2993 46.8508 40.0012 47.0912C39.5664 47.4423 39.4898 48.0909 39.8293 48.5404C40.1688 48.9899 40.7961 49.0692 41.2309 48.7181C41.4068 48.5754 41.9044 48.2885 42.3032 48.0588C43.4977 47.3695 43.9718 47.0691 44.2182 46.641L48.4759 39.2408C49.3495 37.7217 48.8361 36.1612 47.8327 35.2307L49.0383 24.9836C49.108 24.3942 49.5724 23.9675 50.0968 24.0074C50.357 24.0281 50.5951 24.1552 50.7669 24.3635C50.9373 24.5697 51.0194 24.8295 50.9987 25.0949L49.364 45.9988ZM20.7214 19.0326C20.2984 18.6673 20.2418 18.0166 20.5951 17.5784C20.9484 17.1403 21.5784 17.0818 22.0015 17.4479L26.44 21.2796L34.5482 12.8955C34.9374 12.493 35.5702 12.493 35.9601 12.8955C36.35 13.2986 36.35 13.9522 35.9601 14.3554L27.2066 23.4074C27.0127 23.6079 26.7567 23.7092 26.5007 23.7092C26.2743 23.7092 26.0466 23.63 25.861 23.4694L20.7214 19.0326Z" fill="url(#paint0_linear_370_111)"/>
<defs>
<linearGradient id="paint0_linear_370_111" x1="26.5" y1="0" x2="26.5" y2="64" gradientUnits="userSpaceOnUse">
<stop stop-color="#F9D6D6"/>
<stop offset="1" stop-color="#C8EAFB"/>
</linearGradient>
</defs>
</svg>
