<svg width="15" height="11" viewBox="0 0 15 11" fill="none" xmlns="http://www.w3.org/2000/svg">
<path d="M6.26958 7.70661L9.8162 5.65654L6.26958 3.60647V7.70661ZM14.1692 2.35593C14.258 2.67711 14.3195 3.10762 14.3605 3.65431C14.4084 4.20099 14.4289 4.67251 14.4289 5.08252L14.4699 5.65654C14.4699 7.15309 14.3605 8.25329 14.1692 8.95715C13.9983 9.57217 13.602 9.96852 12.987 10.1394C12.6658 10.2282 12.0781 10.2897 11.1761 10.3307C10.2877 10.3785 9.47452 10.399 8.72283 10.399L7.6363 10.44C4.77303 10.44 2.98947 10.3307 2.28562 10.1394C1.6706 9.96852 1.27425 9.57217 1.10341 8.95715C1.01457 8.63597 0.953073 8.20546 0.912071 7.65877C0.864236 7.11209 0.843736 6.64057 0.843736 6.23056L0.802734 5.65654C0.802734 4.15999 0.912071 3.05979 1.10341 2.35593C1.27425 1.74091 1.6706 1.34456 2.28562 1.17372C2.60679 1.08489 3.19448 1.02339 4.09651 0.982384C4.98487 0.934549 5.79807 0.914048 6.54976 0.914048L7.6363 0.873047C10.4996 0.873047 12.2831 0.982384 12.987 1.17372C13.602 1.34456 13.9983 1.74091 14.1692 2.35593Z" fill="#353232"/>
</svg>
