<svg width="31" height="32" viewBox="0 0 31 32" fill="none" xmlns="http://www.w3.org/2000/svg">
<circle cx="15.2523" cy="16.0912" r="15.2387" fill="url(#paint0_linear_881_103)"/>
<path d="M13.8294 17.9489L17.6898 15.7175L13.8294 13.486V17.9489ZM22.428 12.1248C22.5246 12.4744 22.5916 12.943 22.6362 13.5381C22.6883 14.1331 22.7106 14.6464 22.7106 15.0927L22.7552 15.7175C22.7552 17.3464 22.6362 18.544 22.428 19.3101C22.242 19.9795 21.8106 20.4109 21.1412 20.5969C20.7916 20.6936 20.1519 20.7605 19.17 20.8052C18.2031 20.8572 17.3179 20.8795 16.4997 20.8795L15.3171 20.9242C12.2005 20.9242 10.2591 20.8052 9.49299 20.5969C8.82355 20.4109 8.39214 19.9795 8.20619 19.3101C8.10949 18.9605 8.04255 18.4919 7.99792 17.8968C7.94585 17.3018 7.92354 16.7886 7.92354 16.3423L7.87891 15.7175C7.87891 14.0885 7.99792 12.891 8.20619 12.1248C8.39214 11.4554 8.82355 11.024 9.49299 10.838C9.84258 10.7413 10.4823 10.6744 11.4641 10.6298C12.4311 10.5777 13.3162 10.5554 14.1344 10.5554L15.3171 10.5107C18.4337 10.5107 20.375 10.6298 21.1412 10.838C21.8106 11.024 22.242 11.4554 22.428 12.1248Z" fill="#353232"/>
<defs>
<linearGradient id="paint0_linear_881_103" x1="0.0136719" y1="16.0912" x2="30.491" y2="16.0912" gradientUnits="userSpaceOnUse">
<stop stop-color="#FDC1A0" stop-opacity="0.86"/>
<stop offset="1" stop-color="#F8D3BE" stop-opacity="0.77"/>
</linearGradient>
</defs>
</svg>
