<svg width="29" height="28" viewBox="0 0 29 28" fill="none" xmlns="http://www.w3.org/2000/svg">
<circle cx="14.5801" cy="14" r="14" fill="url(#paint0_linear_439_398)"/>
<path d="M13.2696 15.7066L16.8162 13.6565L13.2696 11.6065V15.7066ZM21.1692 10.3559C21.258 10.6771 21.3195 11.1076 21.3605 11.6543C21.4084 12.201 21.4289 12.6725 21.4289 13.0825L21.4699 13.6565C21.4699 15.1531 21.3605 16.2533 21.1692 16.9572C20.9983 17.5722 20.602 17.9685 19.987 18.1394C19.6658 18.2282 19.0781 18.2897 18.1761 18.3307C17.2877 18.3785 16.4745 18.399 15.7228 18.399L14.6363 18.44C11.773 18.44 9.98947 18.3307 9.28562 18.1394C8.6706 17.9685 8.27425 17.5722 8.10341 16.9572C8.01457 16.636 7.95307 16.2055 7.91207 15.6588C7.86424 15.1121 7.84374 14.6406 7.84374 14.2306L7.80273 13.6565C7.80273 12.16 7.91207 11.0598 8.10341 10.3559C8.27425 9.74091 8.6706 9.34456 9.28562 9.17372C9.60679 9.08489 10.1945 9.02339 11.0965 8.98238C11.9849 8.93455 12.7981 8.91405 13.5498 8.91405L14.6363 8.87305C17.4996 8.87305 19.2831 8.98238 19.987 9.17372C20.602 9.34456 20.9983 9.74091 21.1692 10.3559Z" fill="#353232"/>
<defs>
<linearGradient id="paint0_linear_439_398" x1="0.580078" y1="14" x2="28.5801" y2="14" gradientUnits="userSpaceOnUse">
<stop stop-color="#CAD2DC"/>
<stop offset="1" stop-color="#ECD0D1"/>
</linearGradient>
</defs>
</svg>
