<svg width="78" height="114" viewBox="0 0 78 114" fill="none" xmlns="http://www.w3.org/2000/svg">
<path id="Vector" d="M58.824 71.8715C54.6 71.8715 51.156 68.4275 51.156 64.1915V56.5248H58.824C60.8343 56.5623 62.7496 57.3872 64.1581 58.8222C65.5665 60.2571 66.3556 62.1875 66.3556 64.1982C66.3556 66.2089 65.5665 68.1392 64.1581 69.5742C62.7496 71.0091 60.8343 71.8341 58.824 71.8715ZM25.956 64.1915C25.956 68.4275 22.512 71.8715 18.288 71.8715C16.2517 71.8698 14.2993 71.06 12.8594 69.6201C11.4195 68.1803 10.6098 66.2278 10.608 64.1915C10.608 59.9675 14.052 56.5248 18.288 56.5248H25.956V64.1915ZM58.824 47.5715H51.156V30.0515C48.1786 29.7059 45.1879 29.4857 42.192 29.3915V47.5715H34.908V29.4035C31.9164 29.4897 28.9297 29.7018 25.956 30.0395V47.5729H18.288C9.12 47.5729 1.656 55.0235 1.656 64.1915C1.656 73.3595 9.12 80.8235 18.288 80.8235C27.456 80.8235 34.908 73.3595 34.908 64.1915V56.5248H42.192V64.1915C42.192 73.3595 49.656 80.8235 58.824 80.8235C67.992 80.8235 75.456 73.3595 75.456 64.1915C75.456 55.0235 67.992 47.5715 58.824 47.5715ZM77.004 20.8836L74.244 29.3915L73.812 29.2595C66.3586 26.8355 58.788 25.1795 51.156 24.3275C48.1786 23.9819 45.1879 23.7617 42.192 23.6675C39.7647 23.582 37.335 23.5864 34.908 23.6809C31.9164 23.7665 28.9297 23.9783 25.956 24.3155C18.0857 25.2056 10.3285 26.9066 2.808 29.3915L0 20.8849C25.044 12.6155 51.516 12.5676 76.584 20.7395L77.004 20.8836ZM38.52 99.5808C25.712 99.5808 12.904 97.5502 0.445333 93.4875L0.0186666 93.3475L2.79733 84.8328L3.22267 84.9715C26.4573 92.5502 51.0093 92.5048 74.2186 84.8382L77.0293 93.3422C64.4373 97.5022 51.4786 99.5808 38.52 99.5808ZM14.5387 11.0582L12.8347 2.95155C29.0335 -0.471326 45.7528 -0.625445 62.012 2.49822L60.456 10.6342C45.2746 7.71726 29.6634 7.86055 14.5387 11.0582ZM38.5667 113.962C30.6914 113.96 22.8341 113.211 15.1 111.727L16.656 103.592C31.8372 106.509 47.4483 106.366 62.5733 103.169L64.2773 111.276C55.8231 113.058 47.2067 113.959 38.5667 113.962Z" fill="#FF6700"/>
</svg>
