<svg width="60" height="51" viewBox="0 0 60 51" fill="none" xmlns="http://www.w3.org/2000/svg">
<path fill-rule="evenodd" clip-rule="evenodd" d="M58.0566 46.0879V20.8428H59.5912V46.0879H58.0566Z" fill="#FD0202"/>
<mask id="mask0_477_63" style="mask-type:luminance" maskUnits="userSpaceOnUse" x="0" y="0" width="53" height="51">
<path d="M48.5933 0.5H3.58056C1.60307 0.5 0 2.03628 0 3.93137V47.0686C0 48.9637 1.60307 50.5 3.58056 50.5H48.5933C50.5708 50.5 52.1739 48.9637 52.1739 47.0686V3.93137C52.1739 2.03628 50.5708 0.5 48.5933 0.5Z" fill="white"/>
</mask>
<g mask="url(#mask0_477_63)">
<path d="M48.5933 0.5H3.58056C1.60307 0.5 0 2.03628 0 3.93137V47.0686C0 48.9637 1.60307 50.5 3.58056 50.5H48.5933C50.5708 50.5 52.1739 48.9637 52.1739 47.0686V3.93137C52.1739 2.03628 50.5708 0.5 48.5933 0.5Z" fill="#015680"/>
<path d="M9.07859 15.4512C12.3979 15.4512 15.0888 12.8725 15.0888 9.69144C15.0888 6.51039 12.3979 3.93164 9.07859 3.93164C5.75923 3.93164 3.06836 6.51039 3.06836 9.69144C3.06836 12.8725 5.75923 15.4512 9.07859 15.4512Z" fill="#FD0202"/>
<path d="M5.04925 46.0879L4.0094 43.0295H-4.27351L-5.34922 46.0879H-11.7676L-2.80338 20.8656H2.9337L11.4318 46.0879H5.04925ZM-2.19382 37.2222H2.07314L-0.00655556 31.1057L-2.19382 37.2222ZM34.6467 31.9648V46.0879H28.551V45.4692C27.8817 45.6984 27.1886 45.8702 26.4715 45.9847C25.7781 46.0763 25.085 46.1222 24.3917 46.1222C22.6945 46.1222 21.0332 45.8129 19.4076 45.1945C17.7821 44.5758 16.324 43.6481 15.0331 42.4111C13.7423 41.1739 12.7741 39.7881 12.1287 38.253C11.5072 36.6955 11.1964 35.1033 11.1964 33.4768C11.1964 31.8501 11.5072 30.2582 12.1287 28.7004C12.7741 27.1425 13.7423 25.7452 15.0331 24.5081C16.324 23.271 17.7821 22.3432 19.4076 21.7247C21.0332 21.1061 22.6945 20.7969 24.3917 20.7969C26.0889 20.7969 27.7502 21.1061 29.3758 21.7247C31.0014 22.3432 32.4595 23.271 33.7502 24.5081L29.4474 28.6315C28.7543 27.9673 27.9656 27.4746 27.0809 27.154C26.1965 26.8104 25.3001 26.6386 24.3917 26.6386C23.4834 26.6386 22.5869 26.8104 21.7025 27.154C20.818 27.4746 20.0292 27.9673 19.3359 28.6315C18.6427 29.2959 18.1168 30.0518 17.7582 30.8996C17.3997 31.7472 17.2204 32.6062 17.2204 33.4768C17.2204 34.3472 17.3997 35.2062 17.7582 36.054C18.1168 36.9016 18.6427 37.6575 19.3359 38.3219C19.9575 38.9175 20.6507 39.3871 21.4156 39.7307C22.2045 40.0516 23.0053 40.2462 23.818 40.3148C24.6547 40.3606 25.4794 40.2805 26.2922 40.0744C27.105 39.8682 27.8579 39.5246 28.551 39.0435V37.7722H23.2802V31.9648H34.6467ZM52.674 20.8656H58.7339V46.0879H52.172L43.5664 31.3805V46.0879H37.5065V20.9343H44.1042L52.674 35.6072V20.8656Z" fill="white"/>
</g>
</svg>
